v 0.014844 -0.005949 -0.011985
v -0.007706 -0.008900 -0.005461
v -0.015818 -0.003159 0.001147
v -0.002210 -0.003351 0.009939
v 0.002917 -0.008755 0.003462
v 0.020668 -0.006223 -0.004538
v -0.024348 -0.002012 -0.006509
v -0.018005 0.007521 0.005338
v -0.004353 0.005266 0.013249
v -0.016295 0.018718 0.003122
v -0.002820 0.014541 0.011705
v -0.003755 -0.007894 -0.020439
v -0.017609 -0.007108 -0.017811
v 0.004557 -0.010306 -0.009158
v 0.011210 -0.007381 0.008367
v 0.017770 -0.005715 0.002778
v -0.001359 0.022473 0.005695
v 0.012207 -0.008703 -0.001750
v 0.023678 -0.002269 0.000784
v 0.006427 0.019207 0.012063
f 1 17 19
f 1 12 17
f 1 14 12
f 10 17 12
f 20 19 17
f 20 17 10
f 13 12 14
f 13 7 10
f 13 10 12
f 15 19 20
f 15 20 9
f 6 1 19
f 6 14 1
f 8 10 7
f 8 7 3
f 8 3 9
f 11 9 20
f 11 20 10
f 11 8 9
f 11 10 8
f 4 9 3
f 4 15 9
f 2 13 14
f 2 7 13
f 2 3 7
f 16 19 15
f 16 6 19
f 16 15 6
f 18 14 6
f 18 6 15
f 5 2 14
f 5 14 18
f 5 18 15
f 5 15 4
f 5 4 3
f 5 3 2
