v -0.012492 0.005613 0.009041
v -0.014719 -0.002701 -0.003194
v -0.010983 0.000319 -0.004905
v -0.009030 0.004886 -0.003055
v 0.006014 0.003152 0.003864
v 0.000572 0.003497 0.005609
v 0.000428 0.004115 0.004529
v 0.005851 0.004339 0.002588
v -0.005749 0.005546 0.006365
v -0.004294 0.005685 0.004920
v -0.006233 0.006407 0.001686
v -0.000228 0.005899 -0.000404
v -0.002645 0.002965 -0.005003
v 0.002379 0.002992 -0.005930
v 0.004960 0.005898 -0.001919
v -0.006915 0.005024 -0.002420
v 0.008387 0.004200 0.000634
v 0.009710 0.003764 0.001958
v -0.008560 0.006765 0.002196
v -0.006542 0.002168 0.009667
v 0.000747 0.001143 0.007306
v 0.006436 0.000514 0.005693
v 0.009491 0.000118 0.002575
v 0.000187 -0.002623 0.006981
v 0.005419 -0.002477 0.005050
v 0.008235 -0.002739 0.002297
v -0.000740 -0.005318 0.005383
v 0.004028 -0.004939 0.003401
v -0.010567 -0.004891 0.008633
v -0.008339 -0.001576 0.010122
v 0.006684 -0.004299 0.001623
v 0.009563 0.003668 -0.002816
v 0.009718 -0.000569 -0.002926
v 0.008031 0.004348 -0.002459
v -0.003818 0.001888 -0.005984
v 0.002554 0.001248 -0.007590
v -0.004565 -0.000795 -0.006407
v 0.001958 -0.001467 -0.007881
v 0.006594 0.002124 -0.006774
v 0.006188 0.002987 -0.005977
v -0.012298 -0.006911 0.004702
v -0.001745 -0.007206 0.001446
v -0.013362 -0.006321 0.000156
v -0.010433 -0.003149 -0.004264
v -0.004229 -0.003738 -0.005207
v -0.003027 -0.006222 -0.002769
v 0.001677 -0.003918 -0.006589
v 0.001195 -0.005391 -0.004193
v 0.003012 -0.006767 0.000017
v 0.005561 -0.003204 -0.005548
v 0.006391 -0.000692 -0.006946
v 0.008378 -0.003354 -0.002065
v 0.004586 -0.004956 -0.003970
v 0.006580 -0.005051 -0.001249
f 4 2 1
f 4 1 19
f 32 18 33
f 41 1 2
f 20 1 30
f 20 18 1
f 3 2 4
f 39 32 33
f 29 30 1
f 29 1 41
f 9 1 18
f 9 19 1
f 9 10 19
f 22 20 30
f 22 18 20
f 35 4 36
f 35 36 3
f 35 3 4
f 51 39 33
f 15 4 19
f 15 19 10
f 15 18 32
f 15 9 18
f 15 10 9
f 37 2 3
f 43 42 41
f 43 46 42
f 43 41 2
f 49 42 46
f 49 46 48
f 27 42 49
f 27 41 42
f 27 29 41
f 23 18 22
f 23 22 26
f 23 33 18
f 23 26 33
f 38 36 39
f 38 39 51
f 38 3 36
f 38 37 3
f 40 32 39
f 40 15 32
f 40 39 36
f 53 49 48
f 25 26 22
f 28 49 31
f 28 27 49
f 28 25 27
f 28 31 26
f 28 26 25
f 47 51 50
f 47 38 51
f 47 53 48
f 47 50 53
f 47 48 46
f 44 2 37
f 44 37 38
f 44 38 47
f 44 43 2
f 44 47 46
f 44 46 43
f 14 4 15
f 14 15 40
f 14 36 4
f 14 40 36
f 54 31 49
f 54 49 53
f 54 26 31
f 24 27 25
f 24 30 29
f 24 29 27
f 24 22 30
f 24 25 22
f 52 53 50
f 52 54 53
f 52 51 33
f 52 50 51
f 52 33 26
f 52 26 54
