v 0.015491 -0.007399 0.001426
v 0.016862 0.010407 0.001705
v 0.011358 0.008971 0.006695
v 0.011125 0.004441 0.010037
v -0.006878 0.003830 0.009560
v -0.005708 0.009280 0.005899
v -0.008575 -0.005528 -0.009390
v -0.011543 -0.009877 -0.005070
v -0.007960 -0.008050 -0.005155
v -0.004293 -0.005130 -0.009497
v 0.011334 -0.002839 -0.009100
v 0.011427 -0.007133 -0.005354
v 0.016161 -0.006199 -0.004711
v 0.016442 -0.001897 -0.008464
v -0.013525 -0.010451 0.000481
v -0.015560 -0.008689 0.006433
v -0.008518 -0.007489 0.005692
v -0.007902 -0.008536 -0.000067
v -0.014371 -0.002840 0.009767
v -0.008151 -0.002362 0.009448
v 0.011283 0.003781 -0.009300
v 0.011266 0.010221 -0.005099
v -0.003862 0.009422 -0.007108
v -0.001825 0.002109 -0.009900
v 0.010582 -0.000988 0.010181
v 0.010631 -0.008763 0.001140
v 0.010461 -0.006615 0.007162
v 0.011786 0.010937 0.000562
v -0.014158 0.003640 0.009148
v -0.013723 0.009303 0.005081
v -0.006223 0.011679 -0.000535
v -0.009077 0.000791 -0.010494
v -0.014357 0.011973 -0.001174
f 29 33 16
f 8 33 32
f 28 2 22
f 23 32 33
f 23 33 22
f 14 2 13
f 14 22 2
f 1 13 2
f 19 29 16
f 19 16 27
f 25 1 2
f 25 27 1
f 25 19 27
f 15 16 33
f 15 33 8
f 30 33 29
f 30 6 33
f 30 29 6
f 31 22 33
f 31 28 22
f 21 32 23
f 21 11 32
f 21 14 11
f 21 23 22
f 21 22 14
f 26 13 1
f 26 15 8
f 26 1 27
f 26 27 16
f 26 16 15
f 4 19 25
f 4 25 2
f 3 28 31
f 3 2 28
f 3 33 6
f 3 31 33
f 3 4 2
f 3 6 4
f 10 32 11
f 12 14 13
f 12 11 14
f 12 10 11
f 12 8 10
f 12 13 26
f 12 26 8
f 5 6 29
f 5 4 6
f 5 29 19
f 5 19 4
f 7 8 32
f 7 32 10
f 7 10 8
