v -0.014908 0.005373 0.007156
v -0.013715 0.000277 -0.007564
v -0.009290 0.002923 -0.006895
v -0.007024 0.006272 -0.003580
v -0.001130 0.002272 0.007779
v -0.006201 0.004876 0.006923
v -0.003985 0.005457 0.005566
v 0.000704 0.004008 0.005657
v 0.005690 0.003474 0.004606
v 0.004312 0.001284 0.007123
v -0.006245 0.006836 0.001873
v 0.000108 0.005241 0.001325
v -0.000178 0.004724 -0.002860
v 0.005255 0.004256 -0.003048
v 0.005743 0.004913 0.000706
v -0.004442 0.006117 -0.002118
v -0.008344 0.007405 0.001803
v 0.008229 0.001026 0.004677
v 0.008361 0.003315 0.003501
v 0.008588 0.003957 0.000217
v 0.010448 0.001492 0.000126
v -0.010179 0.000682 0.009071
v -0.001762 -0.000205 0.008484
v 0.003637 -0.001791 0.006373
v 0.007607 -0.001710 0.003977
v -0.001625 -0.003818 0.006455
v 0.002920 -0.004033 0.004566
v 0.006205 -0.004133 0.002123
v -0.001572 -0.006348 0.003006
v 0.002593 -0.005676 0.001858
v -0.013692 -0.005839 0.004521
v -0.013328 -0.003181 0.007919
v 0.005157 -0.005634 0.001007
v 0.010090 -0.000633 -0.000685
v -0.002137 0.003360 -0.005673
v 0.004623 0.001862 -0.005223
v -0.002635 0.001370 -0.006879
v 0.004112 0.000024 -0.006756
v 0.008949 0.001854 -0.004491
v 0.008017 0.003529 -0.002685
v -0.013866 -0.006852 -0.001526
v -0.001852 -0.007173 -0.001653
v -0.012540 -0.005402 -0.005512
v -0.009046 -0.000710 -0.007564
v -0.002064 -0.001480 -0.007275
v -0.002061 -0.004684 -0.006077
v 0.003155 -0.002423 -0.006590
v 0.002537 -0.004445 -0.005087
v 0.002638 -0.006261 -0.001734
v 0.006777 -0.002968 -0.004798
v 0.008245 -0.000319 -0.005076
v 0.008072 -0.003362 -0.001299
v 0.005320 -0.004328 -0.004336
v 0.005731 -0.004771 -0.001414
f 43 42 41
f 2 1 4
f 2 44 43
f 2 41 1
f 2 43 41
f 5 22 23
f 49 33 42
f 31 41 42
f 31 1 41
f 17 4 1
f 3 44 2
f 3 2 4
f 46 42 43
f 46 43 44
f 54 52 33
f 28 33 52
f 28 52 25
f 6 1 22
f 6 22 5
f 37 38 44
f 37 44 3
f 37 3 38
f 47 51 50
f 47 38 51
f 53 47 50
f 53 49 42
f 53 50 52
f 53 52 54
f 53 33 49
f 53 54 33
f 39 51 38
f 39 20 21
f 34 52 50
f 34 50 51
f 34 25 52
f 34 39 21
f 34 51 39
f 34 21 18
f 34 18 25
f 19 20 15
f 19 21 20
f 19 18 21
f 24 25 18
f 24 23 26
f 10 6 5
f 10 19 9
f 10 18 19
f 10 5 23
f 10 23 24
f 10 24 18
f 29 26 31
f 29 42 33
f 29 31 42
f 32 31 26
f 32 22 1
f 32 1 31
f 32 23 22
f 32 26 23
f 7 15 17
f 7 9 19
f 7 19 15
f 7 17 1
f 7 1 6
f 16 14 4
f 16 15 14
f 16 4 17
f 16 17 15
f 45 46 44
f 45 47 46
f 45 44 38
f 45 38 47
f 48 46 47
f 48 47 53
f 48 42 46
f 48 53 42
f 35 38 3
f 35 39 38
f 35 3 4
f 35 4 14
f 35 14 39
f 40 20 39
f 40 39 14
f 40 15 20
f 40 14 15
f 27 28 25
f 27 25 24
f 27 33 28
f 27 24 26
f 27 29 33
f 27 26 29
f 8 10 9
f 8 6 10
f 8 9 7
f 8 7 6
