v -0.010182 -0.006143 0.006656
v -0.010835 -0.007176 0.000467
v -0.010059 0.007499 0.008913
v -0.009627 0.001741 0.010893
v -0.011113 0.010212 0.003035
v -0.009679 -0.003183 0.009527
v 0.001026 0.003565 -0.007779
v -0.011289 0.003368 -0.007573
v -0.010944 -0.001749 -0.007148
v 0.002110 -0.001233 -0.008627
v -0.011637 0.008187 -0.004055
v 0.005250 -0.007220 0.002843
v 0.004790 -0.007870 -0.003174
v 0.005408 -0.004453 0.006351
v 0.002209 0.005267 0.007029
v 0.004230 -0.000799 0.008121
v -0.010941 -0.005975 -0.004516
v 0.003873 -0.005396 -0.007193
v 0.000559 0.007100 -0.004915
v -0.000076 0.008854 0.001774
v 0.005911 0.006437 -0.005013
v 0.005860 0.007819 0.001061
v 0.008124 0.004366 0.006537
v 0.009418 -0.001127 0.007243
v 0.009633 -0.004668 0.005470
v 0.006581 0.003472 -0.007945
v 0.007673 -0.000983 -0.009232
v 0.007383 -0.005532 -0.007149
v 0.008637 -0.006962 0.001889
v 0.007707 -0.007418 -0.003494
f 2 11 17
f 2 17 13
f 8 17 11
f 30 28 25
f 30 13 28
f 27 25 28
f 27 26 23
f 27 8 26
f 5 11 2
f 6 16 4
f 7 11 26
f 7 8 11
f 7 26 8
f 29 30 25
f 29 13 30
f 24 25 27
f 24 27 23
f 24 16 6
f 24 23 4
f 24 4 16
f 9 17 8
f 3 4 23
f 3 5 4
f 22 3 23
f 1 5 2
f 1 4 5
f 1 6 4
f 10 8 27
f 10 9 8
f 21 23 26
f 21 22 23
f 12 2 13
f 12 1 2
f 12 13 29
f 12 29 25
f 12 25 1
f 14 1 25
f 14 6 1
f 14 25 24
f 14 24 6
f 18 9 10
f 18 17 9
f 18 27 28
f 18 10 27
f 18 13 17
f 18 28 13
f 19 26 11
f 19 21 26
f 19 11 5
f 20 22 21
f 20 21 19
f 20 19 5
f 20 5 3
f 20 3 22
