v -0.004800 -0.004321 0.008434
v -0.006945 -0.007184 0.003992
v -0.011385 -0.007245 0.005632
v -0.009000 -0.004202 0.009939
v -0.005403 0.008517 0.005917
v -0.003857 0.004844 0.008925
v -0.007656 0.005200 0.010480
v -0.010235 0.009195 0.007642
v -0.005889 0.009201 0.000369
v -0.012575 0.009969 0.002272
v -0.003975 0.000085 0.009520
v -0.007464 0.000289 0.011040
v -0.013019 -0.007287 0.000461
v -0.013834 -0.004996 -0.003132
v -0.013902 0.006404 -0.003667
v 0.006446 0.001066 -0.010300
v -0.009755 0.000496 -0.006747
v -0.009058 -0.004933 -0.004562
v 0.006901 -0.003264 -0.009975
v -0.013886 0.000140 -0.005769
v -0.008628 0.006243 -0.004953
v 0.010622 -0.005449 0.002652
v 0.008598 -0.007677 -0.001843
v 0.009905 -0.001597 0.004563
v 0.009482 0.005396 0.002281
v 0.009929 0.001750 0.004452
v -0.008544 -0.007199 -0.001037
v 0.007476 -0.006768 -0.007077
v 0.006180 0.005196 -0.007986
v 0.007105 0.007721 -0.002605
v 0.010685 0.004187 -0.009507
v 0.011533 0.006513 -0.004054
v 0.014629 0.001244 0.002851
v 0.014579 -0.002186 0.002936
v 0.011302 0.000358 -0.011849
v 0.010209 -0.006691 -0.007547
v 0.013014 -0.005527 0.001210
v 0.011214 -0.007490 -0.002958
f 7 12 33
f 21 35 15
f 32 33 35
f 34 33 12
f 34 35 33
f 4 34 12
f 4 22 34
f 4 12 7
f 4 7 8
f 37 22 23
f 37 23 38
f 37 34 22
f 28 23 13
f 28 38 23
f 25 33 32
f 25 7 33
f 25 8 7
f 31 35 21
f 31 32 35
f 10 21 15
f 17 15 35
f 17 20 15
f 17 35 20
f 36 38 28
f 36 37 38
f 36 35 34
f 36 34 37
f 19 20 35
f 19 35 36
f 19 36 28
f 30 25 32
f 30 10 8
f 30 32 31
f 3 10 13
f 3 4 8
f 3 8 10
f 3 13 23
f 3 22 4
f 3 23 22
f 14 15 20
f 14 28 13
f 14 10 15
f 14 13 10
f 5 8 25
f 5 30 8
f 5 25 30
f 29 30 31
f 29 31 21
f 29 21 10
f 18 20 19
f 18 14 20
f 18 19 28
f 18 28 14
f 9 10 30
f 9 29 10
f 9 30 29
