v -0.006984 -0.006543 0.005490
v -0.006069 -0.008181 0.000034
v -0.011312 -0.006536 0.005350
v -0.005823 0.006070 0.006460
v -0.006030 0.001601 0.008907
v -0.010662 0.002982 0.008838
v -0.010602 0.007368 0.005936
v -0.005132 0.008656 0.000948
v -0.006705 -0.002981 0.008612
v -0.011192 -0.002314 0.008576
v -0.009681 0.008917 -0.006211
v 0.005777 0.003367 -0.007847
v -0.004620 0.003238 -0.009359
v -0.004985 -0.002575 -0.009454
v 0.005994 -0.000677 -0.008996
v -0.010112 0.003211 -0.010148
v -0.005072 0.007780 -0.005555
v 0.004307 -0.007147 0.003154
v 0.004349 -0.008049 -0.002249
v 0.004215 -0.003749 0.007067
v 0.005113 0.004478 0.005973
v 0.004719 -0.000112 0.007860
v -0.004961 -0.007066 -0.006227
v 0.004570 -0.006477 -0.006822
v 0.005024 0.006539 -0.005025
v 0.004382 0.007702 0.000705
v 0.009757 0.005700 -0.005191
v 0.009099 0.006992 0.000451
v 0.009958 0.000047 0.007671
v 0.008419 -0.004017 0.006505
v 0.011000 0.002772 -0.008103
v 0.008686 -0.006211 -0.006910
v 0.007126 -0.006985 0.002622
v 0.007446 -0.007800 -0.003060
f 16 11 31
f 16 3 7
f 16 7 11
f 23 3 16
f 23 16 14
f 32 30 34
f 8 11 7
f 8 26 11
f 8 7 26
f 27 31 11
f 10 9 5
f 10 5 6
f 10 3 9
f 10 7 3
f 10 6 7
f 1 18 30
f 1 9 3
f 1 30 9
f 33 34 30
f 33 30 18
f 2 3 23
f 2 1 3
f 2 18 1
f 15 31 32
f 15 32 14
f 15 16 31
f 15 14 16
f 24 34 23
f 24 32 34
f 24 23 14
f 24 14 32
f 28 26 7
f 28 7 21
f 28 11 26
f 28 27 11
f 28 31 27
f 29 6 5
f 29 21 6
f 29 5 9
f 29 9 30
f 29 28 21
f 29 31 28
f 29 32 31
f 29 30 32
f 4 7 6
f 4 21 7
f 4 6 21
f 19 23 34
f 19 2 23
f 19 18 2
f 19 34 33
f 19 33 18
