v 0.011696 -0.014376 0.021578
v 0.001067 -0.018588 0.022329
v 0.017314 -0.017594 0.030068
v 0.022433 -0.016462 0.037845
v 0.023149 -0.009102 0.042911
v 0.030530 -0.002165 0.040611
v 0.029968 -0.009637 0.037002
v 0.037447 0.001136 0.038625
v 0.023948 0.007550 0.040290
v 0.036229 0.009864 0.034537
v 0.016183 0.020005 0.016547
v 0.012482 0.020807 0.004036
v 0.028380 0.019424 0.002300
v 0.030690 0.018015 0.015362
v 0.017663 0.015726 -0.014847
v 0.024577 0.018029 -0.005742
v 0.008560 0.020505 -0.003977
v 0.003236 0.018242 -0.012428
v 0.002929 -0.009938 0.007711
v -0.007659 -0.012045 0.006702
v -0.004635 -0.013990 0.011812
v 0.005254 -0.011120 0.012698
v 0.012317 0.002919 0.049435
v 0.019409 -0.000739 0.046221
v -0.034373 -0.018174 -0.001492
v -0.046239 -0.012271 0.000868
v -0.045472 -0.011801 0.006708
v -0.034643 -0.017030 0.003142
v -0.038962 -0.014492 0.030151
v -0.045046 -0.009131 0.025015
v -0.049468 0.000430 0.034429
v -0.041624 -0.001131 0.038437
v -0.034954 -0.006357 0.044021
v -0.047788 -0.010453 -0.011802
v -0.039471 -0.014975 -0.015295
v -0.041169 0.003796 -0.024479
v -0.039723 0.013807 -0.023659
v -0.046913 0.012648 -0.023856
v -0.048460 0.003392 -0.022732
v -0.031458 0.004126 -0.026592
v -0.029685 0.014699 -0.022832
v 0.026410 -0.013397 0.030403
v 0.021316 -0.013161 0.021946
v 0.045980 -0.010838 0.027462
v 0.035145 -0.011051 0.024114
v 0.035272 -0.010319 0.031448
v 0.043886 -0.008641 0.033439
v 0.025202 -0.008969 0.002527
v 0.013451 -0.008705 0.003828
v 0.016523 -0.008953 0.009646
v 0.029595 -0.009870 0.009934
v 0.009172 -0.011522 -0.009376
v 0.021166 -0.011215 -0.009603
v 0.017528 -0.013031 -0.017067
v 0.009499 -0.013773 -0.015546
v 0.042897 -0.009267 -0.007232
v 0.051467 -0.006462 -0.007517
v 0.050542 -0.005247 -0.010651
v 0.041547 -0.008717 -0.010634
v -0.053969 0.012622 -0.023593
v -0.055220 0.003442 -0.020186
v 0.007924 0.007936 -0.031906
v 0.001921 0.000075 -0.036822
v 0.012766 -0.002162 -0.040492
v 0.016053 0.006539 -0.034320
v -0.036557 0.021511 -0.017368
v -0.044074 0.021414 -0.019671
v -0.033843 0.006267 0.041562
v -0.040969 0.009622 0.037157
v -0.048587 0.011891 0.036050
v 0.038667 -0.011283 0.017919
v 0.014893 -0.010921 0.015188
v 0.001116 -0.009985 0.003058
v -0.003695 -0.018059 -0.026112
v -0.014281 -0.018346 -0.024373
v -0.008559 -0.018386 -0.015494
v -0.000441 -0.017442 -0.018933
v 0.001477 -0.009638 -0.037831
v 0.004637 -0.015478 -0.033598
v 0.014161 -0.015602 -0.035386
v 0.011691 -0.010721 -0.040007
v 0.005248 0.005360 0.051960
v -0.041916 -0.006356 -0.021597
v -0.048563 -0.005468 -0.017764
v -0.056189 -0.002759 -0.015550
v -0.021042 -0.016274 0.003854
v -0.034896 -0.016535 0.006495
v -0.033806 -0.017473 0.011287
v -0.019905 -0.016387 0.006711
v -0.046311 -0.010941 0.014876
v -0.055288 -0.009707 0.008668
v -0.054873 -0.007972 0.017463
v -0.056263 -0.008960 -0.001107
v -0.056634 -0.006828 -0.009814
v -0.051939 0.024223 -0.021269
v -0.053419 -0.004609 0.025237
v 0.046019 0.004524 0.037333
v 0.045587 -0.003498 0.037254
v 0.035673 -0.006041 0.037954
v -0.024805 -0.019210 -0.007862
v -0.029590 -0.016775 -0.019247
v 0.049915 -0.010111 0.021721
v 0.037359 -0.009834 -0.017956
v 0.045388 0.013433 0.013007
v 0.043296 0.015870 0.025798
v 0.032826 0.016154 0.026045
v 0.022095 -0.009789 -0.004215
v 0.032735 -0.010180 -0.006277
v 0.031599 -0.010438 -0.010266
v 0.042251 -0.010465 0.014438
v 0.051401 -0.008790 0.015943
v 0.047112 -0.008660 0.011092
v 0.039015 -0.009723 0.009642
v -0.010263 0.002823 -0.033884
v -0.011090 -0.008630 -0.035374
v 0.010631 -0.009480 -0.002801
v 0.019119 0.016537 0.026145
v -0.000747 -0.010731 -0.002032
v 0.033275 0.007131 -0.026255
v 0.034500 0.001362 -0.029430
v -0.011007 0.021466 -0.009971
v -0.014801 0.017573 -0.019669
v -0.000760 0.014256 -0.022343
v 0.012429 0.011684 -0.025375
v 0.024963 0.007887 -0.027159
v 0.029362 0.014447 -0.017976
v -0.004770 0.011000 -0.028517
v 0.052835 0.011136 0.018069
v -0.002328 -0.013499 -0.008741
v -0.037148 0.025590 0.024575
v -0.037136 0.029423 0.012345
v -0.028694 0.027413 0.013893
v -0.028597 0.022607 0.026828
v 0.036938 -0.009981 -0.024683
v 0.038130 -0.008647 -0.030264
v -0.018059 0.014985 -0.023858
v 0.019156 -0.002882 -0.042839
v 0.021639 0.005059 -0.037666
v -0.027146 0.020475 -0.016870
v -0.023944 0.024490 -0.008544
v -0.033451 0.026465 -0.008073
v 0.040822 0.014666 -0.007405
v -0.006288 0.023113 -0.002866
v -0.020468 0.025501 -0.001774
v -0.031688 0.027908 -0.000879
v -0.039754 0.030096 -0.001016
v -0.040899 0.028101 -0.008868
v -0.049237 0.031464 -0.010348
v -0.047722 0.032926 -0.001293
v -0.017302 0.025838 0.006879
v -0.013856 0.024788 0.016836
v -0.003698 0.023293 0.005414
v 0.000930 0.022222 0.015502
v 0.039711 0.018709 0.002070
v 0.003719 0.017583 0.027375
v 0.055022 -0.005086 0.011562
v -0.012969 0.017914 0.030113
v 0.010522 0.011806 0.040757
v -0.002406 0.010793 0.042512
v -0.029872 0.016990 0.035513
v -0.018541 0.011904 0.042766
v -0.046018 0.020993 0.031959
v -0.037586 0.019420 0.032883
v -0.045109 0.027964 0.023899
v -0.012585 -0.015411 -0.005448
v -0.010843 -0.013288 -0.000664
v -0.020462 -0.017954 -0.022610
v -0.015743 -0.018659 -0.011993
v -0.021560 -0.016537 0.001479
v -0.022147 -0.017346 -0.002198
v -0.021579 0.003390 -0.030333
v -0.021751 -0.008084 -0.031457
v 0.045987 0.011519 0.033058
v -0.029344 -0.020302 0.018055
v -0.016527 -0.019029 0.013324
v 0.034543 -0.009573 0.002752
v 0.050800 0.013320 -0.006360
v 0.050295 0.017496 0.001528
v 0.044293 -0.008709 0.002528
v 0.028631 -0.012720 -0.017845
v 0.017890 -0.011026 -0.041386
v -0.045831 0.031440 0.011936
v -0.031121 -0.007998 -0.026145
v -0.009244 -0.012221 0.002447
v 0.051271 -0.007058 0.002157
v 0.027883 0.004789 -0.031711
v 0.037652 0.013394 -0.020621
v 0.025583 -0.013439 -0.038465
v 0.029961 -0.012913 -0.034919
v 0.032859 -0.011440 -0.031682
v 0.019776 -0.015140 -0.036315
v 0.023455 -0.015541 -0.030968
v 0.016243 -0.016563 -0.030497
v 0.006437 -0.017385 -0.028420
v -0.003903 -0.015707 -0.031564
v 0.008393 -0.016309 -0.022016
v 0.018327 -0.015511 -0.024627
v 0.028519 -0.013363 -0.025707
v 0.001981 -0.014479 -0.013902
f 96 33 31
f 60 95 137
f 60 94 95
f 70 96 31
f 70 31 33
f 148 70 149
f 148 149 178
f 148 95 96
f 148 96 70
f 138 137 95
f 138 95 148
f 29 33 96
f 29 4 33
f 61 60 172
f 35 172 101
f 75 74 100
f 75 80 74
f 5 82 33
f 5 33 4
f 111 57 156
f 164 149 70
f 68 33 82
f 68 70 33
f 68 82 70
f 135 57 189
f 135 58 57
f 92 29 96
f 92 95 94
f 92 96 95
f 188 137 135
f 188 135 189
f 83 61 172
f 83 172 35
f 85 35 94
f 85 94 60
f 85 60 61
f 85 61 83
f 85 83 35
f 167 100 101
f 167 75 100
f 167 101 172
f 174 100 74
f 174 74 2
f 174 4 29
f 44 47 4
f 102 189 57
f 102 57 111
f 102 111 156
f 102 44 4
f 182 149 164
f 182 164 105
f 182 178 149
f 182 105 178
f 158 164 82
f 158 105 164
f 162 70 82
f 162 82 164
f 162 164 70
f 173 82 97
f 173 158 82
f 173 105 158
f 98 4 47
f 98 5 4
f 98 47 44
f 98 44 102
f 98 156 97
f 98 102 156
f 177 58 135
f 177 57 58
f 177 156 57
f 194 74 80
f 194 80 193
f 194 2 74
f 3 4 174
f 3 174 2
f 3 102 4
f 3 2 194
f 3 194 193
f 181 80 79
f 181 137 188
f 192 188 189
f 192 189 102
f 192 3 193
f 192 102 3
f 191 193 80
f 191 80 181
f 191 181 188
f 191 192 193
f 191 188 192
f 195 181 79
f 195 75 167
f 195 80 75
f 195 79 80
f 25 100 174
f 25 101 100
f 25 35 101
f 91 29 92
f 91 174 29
f 91 25 174
f 128 178 105
f 128 105 173
f 128 156 177
f 128 177 178
f 128 97 156
f 128 173 97
f 23 97 82
f 23 98 97
f 23 82 5
f 23 5 98
f 187 177 135
f 187 138 148
f 187 178 177
f 187 148 178
f 115 172 60
f 115 167 172
f 115 195 167
f 115 60 137
f 115 137 181
f 93 35 25
f 93 25 91
f 93 94 35
f 93 92 94
f 93 91 92
f 120 138 187
f 120 187 135
f 120 137 138
f 120 135 137
f 81 181 195
f 81 115 181
f 81 195 115
