v -0.010725 -0.000646 -0.002318
v -0.008557 0.003657 -0.002319
v 0.004176 0.002407 0.002170
v 0.000905 0.003526 0.004268
v 0.000462 0.004029 0.003257
v 0.004098 0.003307 0.001502
v -0.003688 0.006006 0.005585
v -0.003224 0.005786 0.003975
v -0.005970 0.006074 0.001671
v -0.001432 0.004858 -0.000562
v -0.003493 0.001792 -0.004454
v 0.000366 0.001232 -0.005798
v 0.001811 0.004269 -0.002414
v -0.006600 0.004269 -0.002105
v 0.005885 0.003277 -0.000564
v 0.007057 0.002557 -0.000393
v -0.007551 0.007088 0.002248
v -0.003775 0.003800 0.009086
v 0.001987 0.001748 0.005662
v 0.005849 0.000840 0.002600
v 0.007529 0.000350 -0.000712
v 0.000978 -0.000462 0.006639
v 0.005727 -0.001454 0.003093
v 0.007196 -0.001957 -0.000182
v -0.000555 -0.003448 0.006401
v 0.004097 -0.003583 0.002810
v -0.006550 -0.002314 0.009857
v -0.004700 0.000803 0.010172
v 0.005798 -0.003078 0.000180
v 0.006090 0.002337 -0.004178
v 0.006686 -0.000555 -0.003797
v 0.004897 0.003346 -0.004140
v -0.004259 0.000679 -0.004935
v 0.000444 -0.000230 -0.006559
v -0.005000 -0.001800 -0.004789
v 0.000588 -0.002395 -0.006165
v 0.003931 0.000411 -0.006440
v 0.003073 0.001900 -0.005722
v -0.008953 -0.004442 0.007091
v -0.002764 -0.005654 0.003990
v -0.010851 -0.004914 0.003099
v -0.011297 -0.003181 -0.000380
v -0.005004 -0.004028 -0.003120
v -0.004280 -0.005758 -0.000241
v 0.001046 -0.004119 -0.004824
v 0.001235 -0.005572 -0.002112
v 0.002336 -0.005529 0.000921
v 0.004678 -0.003034 -0.004348
v 0.004701 -0.001663 -0.005688
v 0.006242 -0.002399 -0.002842
v 0.004308 -0.004217 -0.002785
v 0.005050 -0.003917 -0.001391
f 18 17 28
f 18 7 17
f 1 42 17
f 1 17 2
f 16 7 18
f 27 28 17
f 27 17 39
f 41 17 42
f 41 39 17
f 24 21 23
f 19 18 28
f 19 16 18
f 33 1 2
f 33 12 34
f 33 2 12
f 35 33 34
f 35 1 33
f 35 43 42
f 35 42 1
f 15 7 16
f 15 16 32
f 15 17 7
f 15 32 17
f 14 2 17
f 14 17 32
f 40 27 39
f 40 39 41
f 22 19 28
f 22 23 19
f 31 21 24
f 37 31 49
f 44 42 43
f 44 41 42
f 44 40 41
f 44 46 47
f 44 47 40
f 45 49 48
f 45 44 43
f 45 46 44
f 20 19 23
f 20 16 19
f 20 23 21
f 20 21 16
f 25 27 40
f 25 23 22
f 25 40 47
f 25 28 27
f 25 22 28
f 51 47 46
f 51 45 48
f 51 46 45
f 38 34 12
f 38 37 34
f 38 32 37
f 38 14 32
f 38 12 2
f 38 2 14
f 30 37 32
f 30 31 37
f 30 32 16
f 30 16 21
f 30 21 31
f 36 49 45
f 36 34 37
f 36 37 49
f 36 35 34
f 36 43 35
f 36 45 43
f 26 25 47
f 26 23 25
f 26 47 29
f 26 24 23
f 26 29 24
f 50 51 48
f 50 31 24
f 50 48 49
f 50 49 31
f 52 24 29
f 52 50 24
f 52 51 50
f 52 29 47
f 52 47 51
