v -0.020482 -0.000183 0.015389
v -0.025433 0.005026 0.014749
v -0.019931 -0.005668 -0.008087
v -0.016338 -0.004650 0.014872
v -0.022167 0.001163 -0.007766
v 0.013990 -0.007210 -0.003191
v 0.015627 -0.006529 0.002364
v 0.017428 0.002708 0.007284
v 0.016828 0.009050 0.004038
v 0.014940 0.011499 -0.002104
v 0.011485 0.009963 0.004830
v 0.011179 0.002541 0.007748
v -0.012878 0.001113 0.010898
v -0.012981 0.008258 0.008039
v -0.015947 -0.009050 -0.003181
v -0.014608 -0.006191 -0.004990
v 0.016984 -0.002907 0.005771
v 0.007692 -0.005620 -0.010545
v 0.007913 -0.009602 -0.006280
v 0.013768 -0.007233 -0.008481
v 0.013752 -0.002642 -0.012281
v -0.015362 -0.006715 0.009207
v -0.016678 -0.008895 0.003105
v -0.013386 -0.003608 0.010784
v 0.007958 0.001472 -0.012656
v 0.008503 0.008877 -0.010648
v -0.013538 0.008532 -0.006105
v -0.013017 0.002106 -0.008009
v 0.011106 -0.003624 0.007588
v 0.008880 -0.009881 -0.000532
v 0.010098 -0.008443 0.004553
v 0.009493 0.011649 -0.002471
v 0.014604 0.009185 -0.010773
v 0.014117 0.003732 -0.013733
v -0.013598 0.011775 0.000617
f 1 8 2
f 1 4 8
f 23 30 31
f 23 4 1
f 23 2 3
f 23 1 2
f 11 2 8
f 33 8 34
f 29 8 4
f 29 4 31
f 17 8 29
f 17 29 31
f 17 34 8
f 7 31 30
f 7 30 20
f 7 17 31
f 7 20 17
f 15 30 23
f 15 23 3
f 22 31 4
f 22 4 23
f 22 23 31
f 9 8 33
f 9 33 10
f 9 11 8
f 9 10 11
f 5 34 3
f 5 3 2
f 21 34 17
f 21 17 20
f 19 15 3
f 19 20 30
f 19 30 15
f 26 33 34
f 26 34 5
f 25 3 34
f 25 34 21
f 25 21 3
f 18 21 20
f 18 20 19
f 18 3 21
f 18 19 3
f 35 33 26
f 35 2 11
f 35 11 10
f 35 5 2
f 32 10 33
f 32 35 10
f 32 33 35
f 27 26 5
f 27 5 35
f 27 35 26
