v -0.012700 -0.000242 -0.002176
v -0.010004 0.004467 -0.002511
v 0.004798 0.002484 0.002427
v 0.000719 0.003871 0.004883
v 0.000405 0.004558 0.003702
v 0.004652 0.003671 0.001655
v -0.004607 0.007028 0.006612
v -0.003828 0.006909 0.004660
v -0.007046 0.007199 0.002161
v -0.001639 0.005366 -0.000526
v -0.004048 0.002197 -0.005100
v 0.000483 0.001503 -0.006797
v 0.002173 0.004667 -0.002727
v -0.007650 0.005183 -0.002292
v 0.006964 0.003614 -0.000693
v 0.008825 0.002687 -0.000357
v -0.009091 0.008247 0.002993
v -0.004939 0.004446 0.010598
v 0.001957 0.001872 0.006438
v 0.007078 0.000691 0.003086
v 0.009728 -0.000036 -0.000948
v 0.000652 -0.000553 0.007584
v 0.006880 -0.002028 0.003619
v 0.008938 -0.002799 -0.000212
v -0.001133 -0.003682 0.007365
v 0.004696 -0.004384 0.003290
v -0.008382 -0.002079 0.011665
v -0.006253 0.001187 0.011938
v 0.007056 -0.004090 0.000139
v 0.007575 0.002333 -0.004772
v 0.008828 -0.001154 -0.004781
v 0.005775 0.003509 -0.004651
v -0.004896 0.000933 -0.005684
v 0.000708 -0.000369 -0.007992
v -0.005798 -0.001827 -0.005525
v 0.000791 -0.002872 -0.007624
v 0.005059 0.000181 -0.007707
v 0.003668 0.002273 -0.006609
v -0.011181 -0.004038 0.008679
v -0.003672 -0.005661 0.004667
v -0.013117 -0.004573 0.004079
v -0.013452 -0.002834 0.000171
v -0.006039 -0.004218 -0.003426
v -0.005320 -0.005901 -0.000104
v 0.001250 -0.004944 -0.005930
v 0.001443 -0.006503 -0.002628
v 0.002646 -0.006417 0.001007
v 0.005817 -0.003977 -0.005547
v 0.005893 -0.002362 -0.007148
v 0.007859 -0.003293 -0.003634
v 0.005317 -0.005294 -0.003534
v 0.006161 -0.004942 -0.001783
f 18 17 28
f 18 7 17
f 1 42 17
f 1 17 2
f 16 7 18
f 8 17 7
f 12 34 2
f 27 28 17
f 27 17 39
f 41 17 42
f 41 39 17
f 24 21 23
f 19 18 28
f 33 2 34
f 33 1 2
f 35 33 34
f 35 1 33
f 35 43 42
f 35 42 1
f 13 32 17
f 15 16 32
f 15 32 13
f 15 7 16
f 15 8 7
f 15 17 8
f 15 13 17
f 14 12 2
f 14 2 17
f 14 17 32
f 40 27 39
f 40 39 41
f 22 19 28
f 22 23 19
f 25 40 47
f 25 27 40
f 25 23 22
f 25 28 27
f 25 22 28
f 31 21 24
f 31 48 49
f 37 31 49
f 44 43 46
f 44 42 43
f 44 41 42
f 44 40 41
f 44 46 47
f 44 47 40
f 45 49 48
f 45 46 43
f 20 16 18
f 20 18 19
f 20 19 23
f 20 23 21
f 20 21 16
f 26 25 47
f 26 23 25
f 26 47 29
f 26 24 23
f 26 29 24
f 51 47 46
f 51 45 48
f 51 46 45
f 38 34 12
f 38 37 34
f 38 32 37
f 38 14 32
f 38 12 14
f 30 37 32
f 30 31 37
f 30 32 16
f 30 16 21
f 30 21 31
f 36 49 45
f 36 34 37
f 36 37 49
f 36 35 34
f 36 43 35
f 36 45 43
f 52 24 29
f 52 29 47
f 52 47 51
f 50 31 24
f 50 24 52
f 50 52 51
f 50 48 31
f 50 51 48
