v -0.022231 0.015952 -0.006206
v -0.026493 0.002980 -0.003263
v -0.009891 0.014127 -0.010470
v -0.003924 0.010052 -0.001065
v 0.002015 -0.008250 0.009684
v -0.004655 -0.006807 0.005604
v -0.003566 -0.004132 0.006747
v 0.002003 -0.005470 0.010811
v -0.009469 -0.002805 0.004274
v -0.007226 -0.001496 0.004611
v -0.006540 0.004190 0.003028
v -0.001323 0.002795 0.006652
v -0.003009 0.007686 0.000676
v 0.001710 0.006684 0.001965
v 0.003998 0.001575 0.010065
v 0.005731 -0.004085 0.013348
v 0.008540 0.000201 0.012494
v 0.007659 -0.007054 0.011966
v -0.008137 0.005828 0.004236
v -0.015871 -0.005833 -0.000801
v -0.006470 -0.008900 0.002236
v 0.002162 -0.010050 0.005583
v 0.008845 -0.008354 0.008436
v -0.006174 -0.009970 -0.002818
v 0.002211 -0.009863 0.000282
v 0.008245 -0.007614 0.002347
v -0.004586 -0.008335 -0.007590
v 0.002912 -0.007886 -0.003584
v -0.017437 -0.004800 -0.014525
v -0.018391 -0.007343 -0.007692
v 0.007014 -0.006569 -0.000724
v 0.011866 -0.001256 0.012065
v 0.013148 -0.002799 0.008236
v 0.002235 0.008660 -0.001374
v 0.006753 0.006406 0.005549
v 0.008137 0.006609 0.002240
v 0.001765 0.009057 -0.006038
v 0.009015 0.006258 -0.001072
v 0.012067 0.004120 0.007244
v 0.009191 0.004289 0.009289
v -0.014681 0.000693 -0.019016
v -0.002899 -0.003029 -0.011931
v -0.010865 0.006500 -0.019711
v -0.009345 0.011892 -0.015643
v 0.001598 0.007367 -0.010065
v -0.000159 0.003045 -0.012644
v 0.008368 0.003571 -0.004345
v 0.006975 0.000860 -0.005968
v 0.005138 -0.004204 -0.005759
v 0.011437 0.000650 0.000055
v 0.012820 0.002969 0.003487
v 0.011543 -0.003609 0.002641
v 0.009337 -0.000699 -0.002393
v 0.008901 -0.003808 -0.001152
f 41 1 43
f 41 2 1
f 41 29 2
f 27 29 41
f 30 27 24
f 30 29 27
f 30 2 29
f 30 20 2
f 5 2 20
f 44 43 1
f 44 1 3
f 17 40 1
f 35 3 1
f 35 1 40
f 48 53 49
f 42 27 41
f 42 41 43
f 21 5 20
f 21 22 5
f 21 20 30
f 21 24 22
f 21 30 24
f 8 16 2
f 8 2 5
f 8 5 16
f 52 33 23
f 52 51 33
f 25 23 22
f 25 22 24
f 25 24 27
f 18 16 5
f 18 23 33
f 18 5 22
f 18 22 23
f 37 3 38
f 37 44 3
f 19 17 1
f 19 16 17
f 19 1 2
f 19 2 16
f 32 40 17
f 32 18 33
f 32 17 16
f 32 16 18
f 36 38 3
f 36 3 35
f 45 37 38
f 45 44 37
f 45 43 44
f 50 53 48
f 50 52 53
f 50 51 52
f 46 48 49
f 46 49 42
f 46 42 43
f 46 43 45
f 54 49 53
f 54 53 52
f 26 52 23
f 26 23 25
f 26 54 52
f 39 35 40
f 39 36 35
f 39 40 32
f 39 51 38
f 39 38 36
f 39 33 51
f 39 32 33
f 47 50 48
f 47 45 38
f 47 38 51
f 47 51 50
f 47 48 46
f 47 46 45
f 28 26 25
f 28 25 27
f 28 42 49
f 28 27 42
f 31 28 49
f 31 26 28
f 31 49 54
f 31 54 26
