v 0.009300 0.011396 -0.002539
v 0.012015 0.007564 0.000726
v -0.002283 0.005980 0.011923
v -0.006138 0.009608 0.009721
v -0.015732 -0.006971 0.003792
v -0.005708 -0.008387 0.003341
v -0.008587 -0.005845 -0.000002
v 0.004609 -0.005568 -0.010227
v 0.008049 -0.007257 -0.006545
v -0.001954 -0.006358 0.012942
v -0.002379 -0.007872 0.007343
v 0.000443 -0.001264 0.014222
v 0.003259 -0.001367 -0.012501
v 0.003005 0.005796 -0.012184
v -0.012521 0.003200 -0.001123
v -0.011710 -0.001598 -0.000804
v 0.013621 0.002447 0.001861
v 0.011250 -0.005797 -0.003005
v 0.013202 -0.002852 0.000521
v 0.005486 0.010661 -0.007729
v 0.007756 -0.001778 -0.015136
v -0.009938 0.009679 0.003818
v -0.015044 -0.003418 0.001586
f 2 17 21
f 2 21 1
f 9 21 18
f 19 21 17
f 19 18 21
f 13 21 5
f 14 21 13
f 14 13 15
f 23 13 5
f 23 15 13
f 22 14 15
f 22 15 23
f 22 23 5
f 8 5 21
f 8 21 9
f 12 19 17
f 12 17 2
f 12 2 3
f 4 1 22
f 4 2 1
f 4 3 2
f 4 22 5
f 4 12 3
f 20 22 1
f 20 14 22
f 20 1 21
f 20 21 14
f 11 9 18
f 6 11 5
f 6 9 11
f 6 5 8
f 6 8 9
f 10 19 12
f 10 18 19
f 10 11 18
f 10 5 11
f 10 4 5
f 10 12 4
