v -0.016617 0.007496 0.007833
v -0.016320 0.001159 -0.007497
v -0.010846 0.003845 -0.007196
v -0.007749 0.007529 -0.003956
v -0.000864 0.002848 0.008158
v -0.006438 0.006245 0.007326
v -0.003870 0.006658 0.005904
v 0.001304 0.004226 0.005843
v 0.006881 0.003168 0.004532
v 0.005339 0.001248 0.007423
v -0.006488 0.008273 0.001865
v 0.000630 0.005482 0.001164
v 0.000115 0.005013 -0.003223
v 0.006184 0.003765 -0.003564
v 0.006939 0.004575 0.000373
v -0.004600 0.007339 -0.002471
v -0.008954 0.009124 0.001765
v 0.009831 0.000374 0.004787
v 0.009914 0.002862 0.003336
v 0.009898 0.003260 -0.000216
v 0.012195 0.000433 -0.000285
v -0.011192 0.002184 0.009911
v -0.001722 0.000395 0.009110
v 0.004298 -0.001913 0.006779
v 0.008865 -0.002493 0.004125
v -0.001831 -0.003495 0.007068
v 0.003306 -0.004336 0.005053
v 0.006977 -0.005044 0.002332
v -0.002091 -0.006040 0.003553
v 0.002671 -0.006114 0.002239
v -0.015905 -0.004506 0.005473
v -0.015199 -0.001674 0.009027
v 0.005661 -0.006773 0.001269
v 0.011896 -0.001965 -0.001155
v -0.002425 0.003745 -0.006201
v 0.005104 0.001148 -0.005664
v -0.003255 0.001486 -0.007260
v 0.004311 -0.000799 -0.007304
v 0.010111 0.000794 -0.005265
v 0.009206 0.002717 -0.003227
v -0.016464 -0.005778 -0.000987
v -0.002731 -0.007206 -0.001341
v -0.015023 -0.004778 -0.005260
v -0.010822 -0.000183 -0.007608
v -0.002798 -0.001740 -0.007506
v -0.003014 -0.004968 -0.006128
v 0.003136 -0.003285 -0.007019
v 0.002310 -0.005250 -0.005277
v 0.002500 -0.007021 -0.001628
v 0.007382 -0.004274 -0.005372
v 0.009314 -0.001622 -0.005866
v 0.009074 -0.004693 -0.001563
v 0.005630 -0.005542 -0.004727
v 0.006240 -0.005902 -0.001482
f 43 42 41
f 2 1 4
f 2 44 43
f 2 41 1
f 2 43 41
f 5 22 23
f 17 4 1
f 31 41 42
f 31 1 41
f 3 44 2
f 3 2 4
f 39 21 34
f 49 33 42
f 49 42 53
f 49 53 33
f 47 50 53
f 52 50 34
f 52 34 33
f 52 53 50
f 52 33 53
f 25 33 34
f 29 42 33
f 29 31 42
f 32 23 22
f 32 22 1
f 32 1 31
f 37 38 44
f 37 44 3
f 37 3 38
f 35 38 3
f 35 39 38
f 35 3 4
f 51 34 50
f 51 39 34
f 51 38 39
f 51 50 47
f 51 47 38
f 46 47 53
f 46 42 43
f 46 53 42
f 46 43 44
f 7 9 19
f 7 19 15
f 7 15 17
f 7 17 1
f 16 4 17
f 16 17 15
f 20 19 21
f 20 15 19
f 20 21 39
f 10 5 23
f 10 19 9
f 10 9 7
f 27 33 25
f 45 46 44
f 45 47 46
f 45 44 38
f 45 38 47
f 6 7 1
f 6 1 22
f 6 22 5
f 6 5 10
f 6 10 7
f 14 16 15
f 14 4 16
f 14 35 4
f 14 39 35
f 18 19 10
f 18 21 19
f 18 34 21
f 18 25 34
f 24 27 25
f 24 25 18
f 24 18 10
f 24 10 23
f 26 31 29
f 26 32 31
f 26 29 33
f 26 33 27
f 26 27 24
f 26 23 32
f 26 24 23
f 40 15 20
f 40 14 15
f 40 20 39
f 40 39 14
