v 0.013664 -0.016576 0.023537
v 0.002122 -0.021849 0.024957
v 0.020481 -0.020788 0.033229
v 0.026130 -0.019781 0.042459
v 0.026040 -0.011085 0.048971
v 0.034168 -0.002053 0.045920
v 0.033867 -0.010829 0.040922
v 0.041825 0.002444 0.042542
v 0.027037 0.008110 0.046254
v 0.039892 0.012419 0.038057
v 0.017338 0.022284 0.018653
v 0.013091 0.022043 0.004958
v 0.030200 0.020065 0.002553
v 0.032786 0.019412 0.016664
v 0.019300 0.017701 -0.015466
v 0.026217 0.019498 -0.005446
v 0.008909 0.022197 -0.003797
v 0.003417 0.020239 -0.013349
v 0.002875 -0.010250 0.009039
v -0.009488 -0.012029 0.008052
v -0.005660 -0.015040 0.013367
v 0.005748 -0.012057 0.014340
v 0.014403 0.000983 0.056785
v 0.022014 -0.002294 0.053051
v -0.039607 -0.018925 -0.002663
v -0.052548 -0.012469 0.000311
v -0.051320 -0.011633 0.006708
v -0.039479 -0.017859 0.002474
v -0.043913 -0.018184 0.032307
v -0.050391 -0.010165 0.026360
v -0.055267 0.000603 0.037796
v -0.046985 -0.001790 0.043429
v -0.040128 -0.009705 0.049694
v -0.054663 -0.010623 -0.014054
v -0.045748 -0.015615 -0.018386
v -0.046803 0.005039 -0.026982
v -0.044801 0.016062 -0.026142
v -0.053100 0.015379 -0.025873
v -0.054816 0.005627 -0.024377
v -0.036151 0.004268 -0.030315
v -0.033695 0.016215 -0.025486
v 0.030221 -0.015178 0.033454
v 0.024544 -0.014377 0.023848
v 0.051126 -0.010385 0.030657
v 0.039703 -0.011171 0.027057
v 0.039695 -0.010754 0.034980
v 0.049066 -0.008335 0.037188
v 0.028549 -0.009532 0.002992
v 0.014987 -0.008754 0.004372
v 0.018673 -0.009527 0.010955
v 0.033584 -0.010314 0.011250
v 0.010313 -0.012614 -0.010456
v 0.023934 -0.011890 -0.010608
v 0.019886 -0.015024 -0.018678
v 0.010921 -0.015660 -0.017303
v 0.048796 -0.009744 -0.008210
v 0.058013 -0.005688 -0.008652
v 0.056616 -0.004045 -0.012926
v 0.047275 -0.008669 -0.012138
v -0.060982 0.016293 -0.025375
v -0.062092 0.006702 -0.020947
v 0.009394 0.006665 -0.034458
v 0.002411 -0.002653 -0.040606
v 0.016202 -0.004542 -0.043854
v 0.019182 0.005505 -0.037592
v -0.040980 0.024527 -0.019278
v -0.049650 0.024827 -0.021410
v -0.039149 0.005546 0.046932
v -0.046413 0.009654 0.041347
v -0.054267 0.012582 0.039752
v 0.043638 -0.011307 0.020111
v 0.016899 -0.012103 0.016978
v 0.000745 -0.009700 0.003404
v -0.003918 -0.020715 -0.029524
v -0.016646 -0.020620 -0.027757
v -0.009880 -0.020426 -0.017923
v -0.000274 -0.019886 -0.021515
v 0.002240 -0.011864 -0.042293
v 0.006049 -0.017984 -0.037357
v 0.017278 -0.018988 -0.039305
v 0.014579 -0.013697 -0.043908
v 0.006408 0.003476 0.058249
v -0.048411 -0.006646 -0.024825
v -0.055786 -0.005118 -0.020233
v -0.063359 -0.000344 -0.016803
v -0.024213 -0.016989 0.003737
v -0.039517 -0.016969 0.006273
v -0.038591 -0.018457 0.011209
v -0.023267 -0.017136 0.007192
v -0.052013 -0.010813 0.015246
v -0.062365 -0.008814 0.008774
v -0.061435 -0.007012 0.018310
v -0.063411 -0.007432 -0.001833
v -0.063993 -0.005128 -0.011170
v -0.058084 0.028875 -0.023417
v -0.059668 -0.003781 0.026936
v 0.051198 0.006094 0.040376
v 0.050948 -0.002604 0.040684
v 0.039927 -0.006028 0.042047
v -0.028578 -0.019731 -0.009506
v -0.034300 -0.017881 -0.022342
v 0.055894 -0.009978 0.024313
v 0.042696 -0.010328 -0.019513
v 0.048667 0.013302 0.013879
v 0.047489 0.019056 0.028206
v 0.035902 0.019631 0.028708
v 0.024991 -0.010221 -0.004648
v 0.037136 -0.010451 -0.006877
v 0.035852 -0.010530 -0.011385
v 0.047656 -0.010623 0.016217
v 0.057988 -0.009046 0.017877
v 0.053228 -0.008837 0.012338
v 0.044060 -0.009924 0.010996
v -0.012236 0.001238 -0.038462
v -0.012785 -0.010310 -0.040455
v 0.011813 -0.009619 -0.003039
v 0.021100 0.018980 0.029072
v -0.001255 -0.010744 -0.002577
v 0.037163 0.008727 -0.028366
v 0.038885 0.000725 -0.030845
v -0.012418 0.023709 -0.010689
v -0.016710 0.018791 -0.021199
v -0.000869 0.014869 -0.024018
v 0.014189 0.011947 -0.027318
v 0.028738 0.008126 -0.029304
v 0.033004 0.017159 -0.019600
v -0.005179 0.010191 -0.030776
v 0.057933 0.012331 0.019809
v -0.002847 -0.014778 -0.010137
v -0.040806 0.027517 0.026686
v -0.040911 0.032142 0.012908
v -0.031734 0.029694 0.014418
v -0.031864 0.023192 0.028741
v 0.042744 -0.011441 -0.026349
v 0.044393 -0.010145 -0.032412
v -0.020405 0.015841 -0.026014
v 0.024392 -0.006210 -0.046312
v 0.026049 0.003615 -0.040780
v -0.030417 0.022909 -0.018378
v -0.026940 0.027107 -0.009174
v -0.037476 0.029262 -0.008546
v 0.044144 0.014907 -0.007605
v -0.007429 0.024851 -0.002786
v -0.022894 0.028200 -0.001824
v -0.035258 0.031246 -0.001081
v -0.044369 0.033674 -0.001062
v -0.045714 0.031578 -0.009502
v -0.054470 0.036102 -0.011122
v -0.052509 0.037756 -0.001257
v -0.018990 0.028752 0.007776
v -0.015400 0.026682 0.017714
v -0.004320 0.025662 0.006659
v 0.000794 0.024459 0.017016
v 0.043355 0.019630 0.002146
v 0.003611 0.018824 0.030433
v 0.061866 -0.004596 0.012770
v -0.014802 0.017906 0.032099
v 0.011779 0.013181 0.046714
v -0.003261 0.010072 0.046751
v -0.033724 0.017112 0.038838
v -0.021453 0.010925 0.048104
v -0.050914 0.022631 0.034687
v -0.041690 0.020602 0.035341
v -0.049262 0.030903 0.026066
v -0.014540 -0.016193 -0.006791
v -0.012616 -0.013639 -0.001161
v -0.024213 -0.019850 -0.026125
v -0.018293 -0.019931 -0.014177
v -0.024713 -0.017152 0.000816
v -0.025514 -0.017973 -0.003237
v -0.024964 0.003040 -0.034975
v -0.025324 -0.009321 -0.036469
v 0.050912 0.013820 0.035972
v -0.033780 -0.023976 0.018629
v -0.019107 -0.021367 0.014489
v 0.039153 -0.009955 0.003235
v 0.055661 0.013613 -0.006136
v 0.055151 0.017968 0.001633
v 0.050145 -0.008749 0.002885
v 0.032785 -0.014253 -0.019273
v 0.022274 -0.014324 -0.044910
v -0.050256 0.035294 0.012879
v -0.036007 -0.008860 -0.030423
v -0.011071 -0.012128 0.002600
v 0.057793 -0.006939 0.002254
v 0.032240 0.004471 -0.033451
v 0.042333 0.016010 -0.023024
v 0.031204 -0.016834 -0.041571
v 0.035735 -0.016093 -0.037614
v 0.038656 -0.013962 -0.033882
v 0.023976 -0.018220 -0.039567
v 0.027843 -0.018542 -0.033513
v 0.019163 -0.019890 -0.033699
v 0.007882 -0.019705 -0.031856
v -0.004098 -0.018162 -0.035657
v 0.009835 -0.018228 -0.024689
v 0.021254 -0.018464 -0.026850
v 0.033279 -0.015883 -0.027661
v 0.002303 -0.016268 -0.015716
f 164 149 70
f 60 94 92
f 60 92 95
f 162 82 164
f 162 164 70
f 182 105 149
f 182 149 164
f 182 164 105
f 158 164 82
f 158 105 164
f 91 35 174
f 68 33 82
f 68 70 33
f 29 174 4
f 29 4 33
f 29 91 174
f 29 92 91
f 31 33 70
f 135 137 187
f 178 149 105
f 178 187 149
f 148 149 187
f 148 187 95
f 148 70 149
f 148 95 70
f 138 137 95
f 138 187 137
f 138 95 187
f 173 158 82
f 173 105 158
f 102 156 98
f 5 4 98
f 5 33 4
f 85 94 60
f 161 82 162
f 161 162 70
f 161 68 82
f 161 70 68
f 93 94 35
f 93 35 91
f 93 92 94
f 93 91 92
f 96 33 31
f 96 92 29
f 96 29 33
f 96 31 70
f 96 70 95
f 96 95 92
f 57 135 58
f 97 98 156
f 97 173 82
f 128 178 105
f 128 105 173
f 128 156 178
f 128 97 156
f 128 173 97
f 47 98 4
f 47 102 98
f 24 5 98
f 114 95 137
f 114 60 95
f 83 60 172
f 3 4 174
f 188 137 135
f 177 57 58
f 177 187 178
f 177 178 156
f 177 156 57
f 177 58 135
f 177 135 187
f 44 4 102
f 44 47 4
f 44 102 47
f 23 98 97
f 23 24 98
f 23 97 82
f 23 5 24
f 23 82 33
f 23 33 5
f 61 85 60
f 61 60 83
f 183 172 35
f 183 35 83
f 183 83 172
f 167 75 174
f 167 174 35
f 167 35 172
f 74 193 174
f 74 174 75
f 2 174 193
f 2 3 174
f 2 193 3
f 181 137 188
f 189 135 57
f 189 188 135
f 189 102 4
f 84 85 61
f 84 61 83
f 84 83 35
f 84 35 94
f 84 94 85
f 115 114 137
f 115 172 60
f 115 60 114
f 115 167 172
f 191 188 193
f 111 102 189
f 111 189 57
f 111 156 102
f 111 57 156
f 192 193 188
f 192 188 189
f 192 189 4
f 192 4 3
f 192 3 193
f 81 137 181
f 81 115 137
f 195 81 181
f 195 115 81
f 195 75 167
f 195 167 115
f 80 181 188
f 80 188 191
f 80 195 181
f 80 193 74
f 80 191 193
f 80 74 75
f 80 75 195
