v -0.000850 -0.001744 0.008479
v -0.002277 -0.005077 0.005918
v -0.006639 -0.005077 0.007842
v -0.005384 -0.002499 0.011188
v -0.005166 0.009567 0.005137
v -0.001924 0.006417 0.007925
v -0.006472 0.007551 0.011376
v -0.009834 0.010973 0.008455
v -0.008672 0.008961 0.000720
v -0.013177 0.009566 0.003287
v -0.000715 0.002294 0.008841
v -0.004686 0.002047 0.012322
v -0.008960 -0.007172 0.004587
v -0.011657 -0.006461 0.000341
v -0.014769 0.004394 -0.001561
v 0.000242 -0.003372 -0.009899
v -0.009614 -0.002813 -0.004350
v -0.007048 -0.006666 -0.001773
v 0.001710 -0.005903 -0.008373
v -0.009929 0.003465 -0.003843
v 0.008835 -0.002777 0.002397
v 0.006082 -0.006362 -0.000850
v 0.008852 0.000768 0.002949
v 0.005651 0.006861 -0.001042
v 0.008682 0.004224 0.001618
v -0.004262 -0.006784 0.002368
v 0.003517 -0.007065 -0.004934
v 0.000149 0.001292 -0.009442
v 0.001622 0.006558 -0.005428
v 0.005246 0.001014 -0.012511
v 0.006947 0.005550 -0.007748
v 0.011574 0.005464 -0.002949
v 0.012510 0.002707 -0.000068
v 0.012539 -0.000576 0.001170
v 0.004916 -0.003822 -0.012636
v 0.005805 -0.006329 -0.010711
v 0.006640 -0.007696 -0.006753
v 0.011777 -0.004697 0.000287
v 0.008738 -0.006782 -0.002336
f 9 30 15
f 31 9 8
f 10 9 15
f 10 8 9
f 4 12 7
f 4 7 8
f 4 8 10
f 4 10 13
f 32 30 31
f 32 8 7
f 14 37 13
f 14 36 37
f 14 10 15
f 14 13 10
f 29 30 9
f 29 31 30
f 29 9 31
f 38 34 12
f 38 12 4
f 38 37 36
f 38 36 32
f 35 30 32
f 35 32 36
f 35 15 30
f 35 36 14
f 24 31 8
f 24 8 32
f 24 32 31
f 33 12 34
f 33 7 12
f 33 34 38
f 33 38 32
f 39 13 37
f 39 37 38
f 3 4 13
f 3 13 39
f 17 35 14
f 17 14 15
f 17 15 35
f 25 32 7
f 25 7 33
f 25 33 32
f 2 38 4
f 2 4 3
f 2 39 38
f 2 3 39
