v 0.017189 -0.006201 -0.013513
v -0.008637 -0.010447 -0.005842
v -0.018346 -0.004523 0.001815
v -0.001850 -0.003086 0.011787
v 0.003547 -0.008978 0.004506
v 0.023010 -0.006250 -0.005424
v -0.027849 -0.004204 -0.008056
v -0.021215 0.007326 0.006610
v -0.003739 0.005957 0.014923
v -0.019397 0.019732 0.002789
v -0.002467 0.016109 0.012896
v -0.003890 -0.009458 -0.023557
v -0.020303 -0.009407 -0.021204
v 0.005660 -0.011106 -0.009745
v 0.013128 -0.006512 0.010207
v 0.019564 -0.004412 0.003602
v -0.002029 0.023999 0.005308
v 0.013723 -0.008806 -0.001493
v 0.026065 -0.001570 0.000416
v 0.007838 0.021837 0.013976
f 10 17 12
f 20 19 17
f 20 17 10
f 13 12 14
f 13 7 10
f 13 10 12
f 1 14 12
f 1 17 19
f 1 12 17
f 15 19 20
f 15 20 9
f 11 9 20
f 11 20 10
f 6 1 19
f 6 14 1
f 6 19 15
f 8 9 11
f 8 11 10
f 8 10 7
f 8 7 3
f 4 15 9
f 4 9 8
f 4 8 3
f 2 13 14
f 2 7 13
f 2 3 7
f 18 14 6
f 18 6 15
f 5 2 14
f 5 14 18
f 5 18 15
f 5 15 4
f 5 4 3
f 5 3 2
