v -0.005794 -0.003613 0.009246
v -0.008224 -0.006649 0.004416
v -0.013409 -0.006961 0.006480
v -0.010699 -0.003379 0.011090
v -0.006585 0.010309 0.006724
v -0.004832 0.006323 0.009980
v -0.009311 0.007211 0.012137
v -0.012504 0.011846 0.009018
v -0.007218 0.010394 0.000565
v -0.015319 0.012935 0.002912
v -0.004747 0.001066 0.010349
v -0.008850 0.001605 0.012307
v -0.015035 -0.007222 0.001027
v -0.015774 -0.004487 -0.002796
v -0.016536 0.008562 -0.004029
v 0.007792 -0.000118 -0.011301
v -0.011090 0.001277 -0.006637
v -0.010285 -0.004766 -0.004216
v 0.008162 -0.004885 -0.010820
v -0.015951 0.001490 -0.005747
v -0.010328 0.007186 -0.005190
v 0.012058 -0.006793 0.002512
v 0.009688 -0.009318 -0.002127
v 0.011321 -0.002385 0.004414
v 0.010980 0.005176 0.001720
v 0.011463 0.001265 0.004160
v -0.009894 -0.007101 -0.000716
v 0.008621 -0.008477 -0.007675
v 0.007500 0.004328 -0.008860
v 0.008387 0.007461 -0.003414
v 0.013026 0.002674 -0.011113
v 0.014010 0.005492 -0.005329
v 0.017554 0.000278 0.002260
v 0.017383 -0.003479 0.002549
v 0.013837 -0.001539 -0.013309
v 0.012209 -0.008857 -0.008256
v 0.015217 -0.007249 0.000988
v 0.013176 -0.009598 -0.003319
f 7 12 33
f 32 33 35
f 20 15 35
f 36 38 13
f 37 22 38
f 34 33 12
f 34 22 37
f 34 35 33
f 34 36 35
f 34 38 36
f 34 37 38
f 23 13 38
f 23 38 22
f 4 34 12
f 4 22 34
f 4 12 7
f 4 7 8
f 25 33 32
f 25 7 33
f 25 8 7
f 31 32 35
f 31 35 15
f 10 15 13
f 10 31 15
f 19 20 35
f 19 35 36
f 3 4 8
f 3 8 10
f 3 10 13
f 3 13 23
f 3 23 22
f 3 22 4
f 30 25 32
f 30 10 8
f 30 32 31
f 30 31 10
f 5 8 25
f 5 30 8
f 5 25 30
f 28 19 36
f 28 36 13
f 14 19 28
f 14 20 19
f 14 28 13
f 14 13 15
f 14 15 20
