v -0.011815 -0.011093 0.004897
v -0.015697 -0.002450 -0.004996
v -0.015820 0.004328 -0.005508
v -0.013313 -0.011432 -0.000635
v -0.012809 -0.008908 -0.003483
v -0.004082 -0.004523 0.013517
v -0.014047 0.005922 0.013694
v -0.012594 0.011038 -0.000269
v -0.007545 0.009033 0.005996
v -0.002448 0.003079 0.009988
v 0.015045 0.011551 -0.000316
v 0.018954 0.006413 0.002706
v 0.002355 0.004383 0.007693
v -0.000148 0.010302 0.004054
v 0.011864 -0.007419 -0.011256
v 0.012996 -0.009628 -0.006907
v -0.002055 -0.006618 0.008396
v -0.006161 -0.008192 0.004032
v 0.002239 -0.001991 0.008871
v 0.011106 -0.000285 -0.014395
v 0.010434 0.007751 -0.013616
v -0.005714 0.005831 -0.008016
v -0.006416 -0.000632 -0.007123
v 0.019733 0.000529 0.003368
v 0.014630 -0.008829 -0.001945
v 0.018015 -0.005455 0.002225
v 0.011958 0.011588 -0.006554
v -0.003795 0.011572 -0.002266
v -0.007178 -0.006988 -0.002426
v -0.007690 -0.008877 0.000276
f 2 3 20
f 2 7 3
f 2 4 7
f 8 3 7
f 12 11 7
f 12 6 24
f 12 7 6
f 12 24 20
f 1 7 4
f 1 6 7
f 1 4 16
f 5 4 2
f 5 2 20
f 14 7 11
f 14 8 7
f 14 11 8
f 28 8 11
f 21 12 20
f 21 11 12
f 21 20 3
f 21 3 8
f 21 8 28
f 25 6 1
f 25 1 16
f 15 5 20
f 15 20 24
f 15 16 4
f 15 4 5
f 27 28 11
f 27 11 21
f 27 21 28
f 26 24 6
f 26 6 25
f 26 25 16
f 26 15 24
f 26 16 15
