v -0.014810 0.006130 0.010242
v -0.017179 -0.003614 -0.002245
v -0.012554 -0.000498 -0.004488
v -0.010530 0.004515 -0.003067
v 0.006865 0.003840 0.003787
v 0.000464 0.003857 0.005600
v 0.000506 0.004558 0.004576
v 0.006548 0.005027 0.002321
v -0.006766 0.005951 0.006748
v -0.005045 0.006236 0.005172
v -0.007401 0.006605 0.001726
v -0.000447 0.006197 -0.000815
v -0.003086 0.002642 -0.005510
v 0.002471 0.002840 -0.006787
v 0.005232 0.006418 -0.002708
v -0.008113 0.004867 -0.002598
v 0.009160 0.004937 0.000032
v 0.011098 0.004739 0.001669
v -0.010007 0.006755 0.002499
v -0.007602 0.002652 0.010621
v 0.000850 0.001632 0.007584
v 0.007657 0.001154 0.006044
v 0.011160 0.000713 0.002423
v 0.000341 -0.002272 0.007655
v 0.006588 -0.002199 0.005486
v 0.009816 -0.002564 0.002281
v -0.000666 -0.005073 0.006308
v 0.004981 -0.004721 0.003884
v -0.012392 -0.005119 0.010371
v -0.009719 -0.001229 0.011493
v 0.008110 -0.004318 0.001714
v 0.010633 0.004246 -0.003848
v 0.011314 -0.000396 -0.003897
v 0.008412 0.004748 -0.003356
v -0.004345 0.001366 -0.006304
v 0.002721 0.000997 -0.008721
v -0.005006 -0.001483 -0.006323
v 0.002290 -0.002134 -0.008850
v 0.007272 0.002247 -0.008233
v 0.006590 0.003132 -0.007113
v -0.014239 -0.007488 0.006348
v -0.001673 -0.007056 0.002176
v -0.015269 -0.007142 0.001474
v -0.011813 -0.003993 -0.003509
v -0.004593 -0.004406 -0.004905
v -0.003121 -0.006710 -0.002311
v 0.002141 -0.004707 -0.007187
v 0.001783 -0.006008 -0.004292
v 0.003917 -0.006996 0.000267
v 0.006605 -0.003689 -0.006458
v 0.007348 -0.000974 -0.008419
v 0.009988 -0.003494 -0.002657
v 0.005570 -0.005411 -0.004413
v 0.007945 -0.005307 -0.001487
f 4 2 1
f 4 1 19
f 32 18 33
f 41 1 2
f 10 19 1
f 10 1 18
f 20 1 30
f 20 18 1
f 3 2 4
f 3 4 36
f 39 32 33
f 39 36 4
f 43 49 41
f 43 41 2
f 23 33 18
f 22 18 20
f 22 23 18
f 22 30 25
f 22 20 30
f 15 32 39
f 15 4 19
f 15 18 32
f 15 19 10
f 15 10 18
f 46 48 49
f 46 49 43
f 52 33 23
f 53 49 48
f 53 50 52
f 51 39 33
f 51 33 52
f 51 52 50
f 51 36 39
f 47 48 46
f 47 53 48
f 47 50 53
f 47 51 50
f 47 46 43
f 47 43 2
f 24 25 30
f 27 41 49
f 27 49 28
f 27 28 25
f 27 25 24
f 40 39 4
f 40 4 15
f 40 15 39
f 26 52 23
f 26 22 25
f 26 23 22
f 54 49 53
f 54 53 52
f 54 52 26
f 38 36 51
f 38 51 47
f 38 3 36
f 38 47 2
f 38 2 3
f 29 41 27
f 29 30 1
f 29 1 41
f 29 24 30
f 29 27 24
f 31 49 54
f 31 54 26
f 31 28 49
f 31 25 28
f 31 26 25
