v -0.001393 0.011872 -0.010416
v 0.001429 0.007000 -0.013050
v -0.006501 0.014674 -0.004664
v -0.007843 -0.008045 -0.006442
v -0.003095 -0.005488 -0.012290
v -0.021283 -0.007098 -0.004816
v -0.013369 -0.006330 -0.001135
v -0.013450 0.006284 0.003815
v -0.014473 -0.000691 0.003395
v -0.023243 0.001210 -0.000882
v -0.022629 0.009511 -0.001157
v 0.001143 -0.000307 -0.015358
v -0.010747 0.013040 -0.000064
v 0.005899 0.008220 0.002896
v 0.009409 0.006909 -0.001913
v 0.007408 -0.009269 -0.002533
v 0.011300 -0.003881 -0.005683
v 0.003314 -0.010568 0.003354
v -0.001842 -0.003626 0.009887
v -0.000825 -0.007665 0.007022
v 0.012017 0.002233 -0.005222
v 0.001828 0.007730 0.007402
v -0.001910 0.002880 0.010605
v 0.005851 0.001657 0.015633
v 0.005776 -0.010876 0.011553
v 0.008079 -0.013246 0.007555
v 0.013074 0.007131 0.005913
v 0.015779 0.005199 0.000785
v 0.016381 -0.000512 -0.003002
v 0.010564 -0.011532 0.001533
v 0.013351 -0.006417 -0.002720
f 11 10 24
f 27 24 26
f 25 26 24
f 1 3 27
f 1 11 3
f 1 12 11
f 6 25 10
f 6 26 25
f 6 10 11
f 6 11 12
f 30 29 26
f 13 3 11
f 13 11 24
f 13 27 3
f 28 26 29
f 28 27 26
f 28 1 27
f 19 24 10
f 19 10 25
f 19 25 24
f 2 29 12
f 2 12 1
f 2 28 29
f 2 1 28
f 31 29 30
f 5 6 12
f 5 12 31
f 5 31 30
f 22 24 27
f 22 13 24
f 22 27 13
f 17 12 29
f 17 29 31
f 17 31 12
f 4 6 5
f 4 5 30
f 4 26 6
f 4 30 26
