v -0.007712 -0.006396 0.006425
v -0.007012 -0.008019 0.000547
v -0.012429 -0.006814 0.006647
v -0.006385 0.007014 0.007371
v -0.006425 0.002263 0.009951
v -0.011678 0.003739 0.010123
v -0.012012 0.008791 0.007269
v -0.005890 0.009633 0.001395
v -0.007176 -0.002638 0.009799
v -0.012166 -0.002114 0.010035
v -0.011383 0.010282 -0.006248
v 0.006060 0.002925 -0.008830
v -0.006048 0.003303 -0.009880
v -0.006364 -0.002695 -0.009683
v 0.006105 -0.001435 -0.009857
v -0.012187 0.004070 -0.010644
v -0.006108 0.008273 -0.005859
v 0.004918 -0.007628 0.003372
v 0.004601 -0.008975 -0.002369
v 0.005125 -0.003792 0.007211
v 0.006319 0.004787 0.005830
v 0.005884 0.000111 0.007908
v -0.006105 -0.007318 -0.006243
v 0.004522 -0.007595 -0.007347
v 0.005495 0.006520 -0.005940
v 0.005189 0.008015 0.000222
v 0.011382 0.005467 -0.006497
v 0.010983 0.007124 -0.000616
v 0.012003 0.000098 0.007453
v 0.009997 -0.004396 0.006624
v 0.012642 0.002101 -0.009532
v 0.009383 -0.007646 -0.007815
v 0.008211 -0.007826 0.002695
v 0.008259 -0.009231 -0.003516
f 16 11 31
f 16 3 7
f 16 7 11
f 4 7 6
f 32 31 29
f 10 3 9
f 10 7 3
f 10 6 7
f 5 9 29
f 5 4 6
f 5 29 4
f 5 6 10
f 5 10 9
f 30 9 3
f 30 29 9
f 30 32 29
f 28 29 31
f 15 31 32
f 15 32 14
f 15 16 31
f 15 14 16
f 23 2 3
f 23 3 16
f 23 16 14
f 19 33 3
f 19 3 2
f 19 2 23
f 18 3 33
f 18 30 3
f 18 33 30
f 34 30 33
f 34 32 30
f 34 33 19
f 34 19 23
f 21 4 29
f 21 29 28
f 21 7 4
f 21 28 7
f 27 31 11
f 27 28 31
f 27 11 28
f 8 11 7
f 24 32 34
f 24 34 23
f 24 14 32
f 24 23 14
f 26 7 28
f 26 8 7
f 26 28 11
f 26 11 8
