v 0.022231 0.015952 -0.006207
v 0.026493 0.002980 -0.003264
v 0.009891 0.014127 -0.010471
v 0.003924 0.010053 -0.001065
v -0.002016 -0.008250 0.009684
v 0.004654 -0.006806 0.005604
v 0.003565 -0.004132 0.006747
v -0.002003 -0.005470 0.010812
v 0.009468 -0.002805 0.004273
v 0.007225 -0.001496 0.004610
v 0.006540 0.004190 0.003028
v 0.001323 0.002795 0.006652
v 0.003009 0.007686 0.000676
v -0.001710 0.006685 0.001965
v -0.003998 0.001575 0.010065
v -0.005730 -0.004085 0.013349
v -0.008539 0.000201 0.012494
v -0.007659 -0.007054 0.011966
v 0.008137 0.005828 0.004235
v 0.015871 -0.005833 -0.000801
v 0.006470 -0.008900 0.002235
v -0.002162 -0.010050 0.005583
v -0.008845 -0.008354 0.008436
v 0.006174 -0.009970 -0.002818
v -0.002211 -0.009863 0.000282
v -0.008245 -0.007614 0.002347
v 0.004586 -0.008336 -0.007590
v -0.002912 -0.007886 -0.003584
v 0.017436 -0.004800 -0.014525
v 0.018391 -0.007343 -0.007692
v -0.007014 -0.006569 -0.000724
v -0.011865 -0.001256 0.012066
v -0.013147 -0.002799 0.008236
v -0.002235 0.008661 -0.001373
v -0.006753 0.006407 0.005549
v -0.008137 0.006610 0.002241
v -0.001765 0.009057 -0.006038
v -0.009014 0.006258 -0.001072
v -0.012067 0.004120 0.007245
v -0.009190 0.004289 0.009289
v 0.014680 0.000692 -0.019016
v 0.002899 -0.003030 -0.011931
v 0.010864 0.006500 -0.019711
v 0.009344 0.011892 -0.015643
v -0.001598 0.007367 -0.010065
v 0.000159 0.003045 -0.012644
v -0.008368 0.003572 -0.004345
v -0.006975 0.000860 -0.005968
v -0.005138 -0.004204 -0.005759
v -0.011437 0.000650 0.000055
v -0.012819 0.002969 0.003487
v -0.011543 -0.003609 0.002641
v -0.009337 -0.000699 -0.002393
v -0.008901 -0.003808 -0.001152
f 19 2 1
f 19 16 2
f 52 23 33
f 30 29 2
f 41 1 2
f 41 2 29
f 41 43 1
f 27 30 24
f 27 29 30
f 27 41 29
f 8 2 16
f 8 5 2
f 8 16 5
f 18 5 16
f 18 33 23
f 18 23 22
f 18 22 5
f 44 1 43
f 44 3 1
f 25 22 23
f 25 27 24
f 25 24 22
f 42 41 27
f 42 49 46
f 42 46 43
f 42 43 41
f 17 16 19
f 17 19 1
f 17 1 40
f 35 1 3
f 35 40 1
f 35 39 40
f 21 5 22
f 21 24 30
f 21 22 24
f 37 38 3
f 37 3 44
f 45 38 37
f 45 37 44
f 45 43 46
f 45 44 43
f 48 46 49
f 31 54 49
f 51 52 33
f 51 33 39
f 51 39 38
f 32 17 40
f 32 40 39
f 32 39 33
f 32 33 18
f 32 18 16
f 32 16 17
f 36 3 38
f 36 35 3
f 36 38 39
f 36 39 35
f 20 5 21
f 20 2 5
f 20 30 2
f 20 21 30
f 53 49 54
f 53 48 49
f 53 54 52
f 28 27 25
f 28 31 49
f 28 49 42
f 28 42 27
f 26 52 54
f 26 54 31
f 26 23 52
f 26 25 23
f 26 28 25
f 26 31 28
f 50 52 51
f 50 53 52
f 50 48 53
f 47 48 50
f 47 38 45
f 47 51 38
f 47 50 51
f 47 45 46
f 47 46 48
