v 0.007712 -0.006397 0.006425
v 0.007012 -0.008020 0.000547
v 0.012429 -0.006814 0.006647
v 0.006385 0.007014 0.007371
v 0.006425 0.002263 0.009951
v 0.011679 0.003739 0.010123
v 0.012012 0.008791 0.007269
v 0.005890 0.009633 0.001395
v 0.007176 -0.002638 0.009799
v 0.012166 -0.002114 0.010035
v 0.011383 0.010283 -0.006249
v -0.006060 0.002925 -0.008831
v 0.006048 0.003303 -0.009881
v 0.006363 -0.002695 -0.009683
v -0.006105 -0.001435 -0.009858
v 0.012187 0.004070 -0.010644
v 0.006108 0.008273 -0.005860
v -0.004919 -0.007628 0.003372
v -0.004601 -0.008975 -0.002369
v -0.005125 -0.003792 0.007211
v -0.006319 0.004787 0.005831
v -0.005884 0.000111 0.007908
v 0.006105 -0.007318 -0.006243
v -0.004523 -0.007595 -0.007347
v -0.005495 0.006521 -0.005940
v -0.005188 0.008015 0.000222
v -0.011381 0.005467 -0.006497
v -0.010982 0.007124 -0.000616
v -0.012003 0.000098 0.007453
v -0.009998 -0.004396 0.006625
v -0.012642 0.002101 -0.009532
v -0.009383 -0.007646 -0.007815
v -0.008212 -0.007826 0.002696
v -0.008259 -0.009231 -0.003516
f 28 31 29
f 16 31 11
f 15 31 16
f 15 16 14
f 23 16 3
f 23 14 16
f 10 9 3
f 5 29 9
f 5 10 6
f 5 9 10
f 30 3 9
f 30 9 29
f 27 11 31
f 27 31 28
f 27 28 11
f 26 11 28
f 34 33 30
f 18 33 3
f 18 3 30
f 18 30 33
f 8 11 26
f 7 26 28
f 7 8 26
f 7 11 8
f 7 16 11
f 7 6 10
f 7 3 16
f 7 10 3
f 2 23 3
f 32 15 14
f 32 31 15
f 32 29 31
f 32 30 29
f 32 34 30
f 21 28 29
f 21 7 28
f 19 34 23
f 19 23 2
f 19 2 3
f 19 3 33
f 19 33 34
f 24 23 34
f 24 34 32
f 24 14 23
f 24 32 14
f 4 21 29
f 4 7 21
f 4 29 5
f 4 5 6
f 4 6 7
