v 0.001392 0.011871 -0.010416
v -0.001430 0.006999 -0.013050
v 0.006501 0.014674 -0.004663
v 0.007843 -0.008045 -0.006442
v 0.003095 -0.005488 -0.012290
v 0.021283 -0.007096 -0.004816
v 0.013369 -0.006330 -0.001135
v 0.013450 0.006284 0.003815
v 0.014474 -0.000690 0.003395
v 0.023243 0.001212 -0.000882
v 0.022629 0.009512 -0.001158
v -0.001144 -0.000307 -0.015358
v 0.010747 0.013040 -0.000065
v -0.005900 0.008219 0.002896
v -0.009410 0.006909 -0.001913
v -0.007408 -0.009269 -0.002533
v -0.011300 -0.003882 -0.005683
v -0.003313 -0.010568 0.003354
v 0.001842 -0.003626 0.009887
v 0.000826 -0.007665 0.007023
v -0.012018 0.002232 -0.005222
v -0.001828 0.007730 0.007402
v 0.001910 0.002880 0.010605
v -0.005850 0.001658 0.015633
v -0.005775 -0.010876 0.011553
v -0.008079 -0.013246 0.007555
v -0.013074 0.007131 0.005912
v -0.015780 0.005199 0.000785
v -0.016381 -0.000513 -0.003002
v -0.010563 -0.011533 0.001533
v -0.013351 -0.006417 -0.002720
f 27 26 24
f 11 24 10
f 25 24 26
f 6 10 25
f 6 25 26
f 6 11 10
f 6 12 11
f 22 27 24
f 28 29 26
f 28 26 27
f 1 3 11
f 1 11 12
f 1 27 3
f 1 28 27
f 19 10 24
f 19 25 10
f 19 24 25
f 17 29 12
f 17 31 29
f 17 12 31
f 5 12 6
f 5 31 12
f 13 24 11
f 13 22 24
f 13 11 3
f 13 3 27
f 13 27 22
f 2 1 12
f 2 12 29
f 2 28 1
f 2 29 28
f 4 6 26
f 4 5 6
f 30 31 5
f 30 26 29
f 30 29 31
f 30 4 26
f 30 5 4
