v -0.017828 -0.008215 0.001661
v -0.019337 0.011563 0.001896
v -0.013322 0.009656 0.007423
v -0.012925 0.004732 0.010772
v 0.007892 0.003649 0.009459
v 0.006746 0.009197 0.005595
v 0.009719 -0.005409 -0.009841
v 0.012766 -0.010428 -0.005132
v 0.008807 -0.007762 -0.004671
v 0.004800 -0.005108 -0.009311
v -0.012710 -0.003088 -0.009620
v -0.012924 -0.007855 -0.005782
v -0.018200 -0.006803 -0.005334
v -0.018244 -0.001971 -0.009405
v 0.015160 -0.010942 0.000730
v 0.017486 -0.008996 0.007107
v 0.009504 -0.007679 0.005934
v 0.008787 -0.008559 0.000289
v 0.016317 -0.003008 0.010263
v 0.009139 -0.002458 0.009436
v -0.012623 0.004226 -0.009830
v -0.012829 0.011163 -0.005269
v 0.004799 0.009580 -0.007321
v 0.002296 0.002339 -0.009699
v -0.012289 -0.001452 0.011005
v -0.012105 -0.009855 0.001357
v -0.012176 -0.007669 0.008001
v -0.013719 0.011708 0.000757
v 0.016188 0.003827 0.009174
v 0.015929 0.009852 0.004605
v 0.007506 0.011996 -0.001168
v 0.010543 0.000663 -0.011117
v 0.016847 0.013105 -0.001963
f 29 16 33
f 22 2 33
f 8 32 33
f 30 29 33
f 23 33 32
f 23 22 33
f 14 13 2
f 14 2 22
f 3 29 30
f 3 33 2
f 3 30 33
f 19 16 29
f 19 27 16
f 15 33 16
f 15 8 33
f 21 32 14
f 21 14 22
f 21 23 32
f 21 22 23
f 11 14 32
f 4 29 3
f 4 19 29
f 4 3 2
f 26 16 27
f 26 15 16
f 26 8 15
f 7 32 8
f 7 11 32
f 12 13 14
f 12 14 11
f 12 11 7
f 12 7 8
f 12 26 13
f 12 8 26
f 25 27 19
f 25 19 4
f 25 4 2
f 1 13 26
f 1 26 27
f 1 2 13
f 1 25 2
f 1 27 25
