v -0.013664 -0.016576 0.023537
v -0.002122 -0.021849 0.024958
v -0.020482 -0.020788 0.033229
v -0.026131 -0.019781 0.042459
v -0.026041 -0.011085 0.048970
v -0.034168 -0.002054 0.045919
v -0.033868 -0.010830 0.040921
v -0.041825 0.002444 0.042541
v -0.027037 0.008109 0.046252
v -0.039892 0.012419 0.038056
v -0.017339 0.022284 0.018653
v -0.013092 0.022043 0.004959
v -0.030200 0.020065 0.002553
v -0.032786 0.019412 0.016665
v -0.019300 0.017701 -0.015466
v -0.026217 0.019498 -0.005446
v -0.008909 0.022197 -0.003797
v -0.003417 0.020240 -0.013349
v -0.002874 -0.010249 0.009040
v 0.009488 -0.012029 0.008052
v 0.005660 -0.015039 0.013367
v -0.005748 -0.012056 0.014341
v -0.014404 0.000981 0.056783
v -0.022015 -0.002295 0.053049
v 0.039607 -0.018926 -0.002663
v 0.052548 -0.012469 0.000310
v 0.051320 -0.011633 0.006708
v 0.039479 -0.017860 0.002475
v 0.043914 -0.018185 0.032308
v 0.050391 -0.010166 0.026360
v 0.055266 0.000603 0.037796
v 0.046986 -0.001790 0.043429
v 0.040128 -0.009706 0.049695
v 0.054663 -0.010623 -0.014055
v 0.045749 -0.015616 -0.018386
v 0.046803 0.005039 -0.026982
v 0.044802 0.016063 -0.026142
v 0.053100 0.015379 -0.025874
v 0.054816 0.005627 -0.024378
v 0.036151 0.004269 -0.030316
v 0.033695 0.016215 -0.025487
v -0.030222 -0.015179 0.033453
v -0.024544 -0.014377 0.023848
v -0.051126 -0.010385 0.030656
v -0.039703 -0.011171 0.027057
v -0.039696 -0.010755 0.034980
v -0.049066 -0.008335 0.037188
v -0.028549 -0.009531 0.002992
v -0.014986 -0.008753 0.004373
v -0.018672 -0.009526 0.010956
v -0.033583 -0.010314 0.011250
v -0.010312 -0.012613 -0.010456
v -0.023933 -0.011890 -0.010608
v -0.019886 -0.015024 -0.018678
v -0.010921 -0.015660 -0.017303
v -0.048795 -0.009744 -0.008210
v -0.058012 -0.005688 -0.008652
v -0.056616 -0.004045 -0.012926
v -0.047274 -0.008669 -0.012138
v 0.060982 0.016293 -0.025376
v 0.062092 0.006702 -0.020948
v -0.009395 0.006665 -0.034457
v -0.002411 -0.002652 -0.040605
v -0.016203 -0.004542 -0.043853
v -0.019182 0.005505 -0.037592
v 0.040981 0.024528 -0.019278
v 0.049650 0.024828 -0.021411
v 0.039149 0.005547 0.046932
v 0.046412 0.009654 0.041347
v 0.054267 0.012583 0.039751
v -0.043638 -0.011308 0.020111
v -0.016899 -0.012102 0.016979
v -0.000745 -0.009699 0.003405
v 0.003918 -0.020715 -0.029524
v 0.016647 -0.020620 -0.027756
v 0.009880 -0.020427 -0.017922
v 0.000274 -0.019887 -0.021515
v -0.002241 -0.011864 -0.042292
v -0.006049 -0.017984 -0.037356
v -0.017279 -0.018987 -0.039304
v -0.014579 -0.013697 -0.043908
v -0.006408 0.003476 0.058249
v 0.048412 -0.006646 -0.024826
v 0.055786 -0.005118 -0.020234
v 0.063359 -0.000343 -0.016804
v 0.024213 -0.016989 0.003738
v 0.039517 -0.016970 0.006273
v 0.038591 -0.018457 0.011209
v 0.023268 -0.017136 0.007193
v 0.052013 -0.010813 0.015246
v 0.062364 -0.008813 0.008774
v 0.061435 -0.007012 0.018310
v 0.063410 -0.007431 -0.001833
v 0.063993 -0.005127 -0.011170
v 0.058084 0.028875 -0.023418
v 0.059668 -0.003781 0.026936
v -0.051197 0.006093 0.040375
v -0.050947 -0.002604 0.040684
v -0.039927 -0.006028 0.042047
v 0.028578 -0.019732 -0.009506
v 0.034301 -0.017881 -0.022342
v -0.055893 -0.009978 0.024312
v -0.042695 -0.010328 -0.019513
v -0.048667 0.013302 0.013880
v -0.047488 0.019055 0.028206
v -0.035902 0.019630 0.028708
v -0.024991 -0.010220 -0.004647
v -0.037136 -0.010451 -0.006876
v -0.035852 -0.010530 -0.011385
v -0.047655 -0.010623 0.016217
v -0.057988 -0.009046 0.017877
v -0.053228 -0.008837 0.012338
v -0.044060 -0.009924 0.010996
v 0.012236 0.001239 -0.038461
v 0.012785 -0.010310 -0.040454
v -0.011812 -0.009618 -0.003039
v -0.021100 0.018980 0.029072
v 0.001255 -0.010744 -0.002577
v -0.037163 0.008727 -0.028366
v -0.038886 0.000725 -0.030845
v 0.012418 0.023710 -0.010689
v 0.016710 0.018791 -0.021199
v 0.000869 0.014869 -0.024017
v -0.014189 0.011947 -0.027318
v -0.028738 0.008125 -0.029303
v -0.033004 0.017158 -0.019600
v 0.005179 0.010192 -0.030776
v -0.057932 0.012331 0.019809
v 0.002848 -0.014779 -0.010137
v 0.040806 0.027518 0.026686
v 0.040911 0.032143 0.012908
v 0.031733 0.029696 0.014418
v 0.031864 0.023193 0.028741
v -0.042744 -0.011441 -0.026349
v -0.044394 -0.010146 -0.032413
v 0.020405 0.015842 -0.026014
v -0.024393 -0.006210 -0.046312
v -0.026050 0.003615 -0.040780
v 0.030417 0.022909 -0.018378
v 0.026940 0.027106 -0.009174
v 0.037476 0.029262 -0.008546
v -0.044145 0.014908 -0.007605
v 0.007429 0.024851 -0.002786
v 0.022894 0.028200 -0.001824
v 0.035258 0.031246 -0.001081
v 0.044369 0.033675 -0.001063
v 0.045713 0.031580 -0.009502
v 0.054469 0.036103 -0.011122
v 0.052509 0.037757 -0.001257
v 0.018990 0.028752 0.007776
v 0.015399 0.026682 0.017714
v 0.004320 0.025662 0.006659
v -0.000794 0.024458 0.017016
v -0.043355 0.019630 0.002146
v -0.003612 0.018824 0.030433
v -0.061865 -0.004596 0.012769
v 0.014802 0.017907 0.032099
v -0.011780 0.013180 0.046712
v 0.003261 0.010072 0.046751
v 0.033724 0.017112 0.038839
v 0.021453 0.010926 0.048104
v 0.050913 0.022632 0.034687
v 0.041690 0.020603 0.035341
v 0.049261 0.030904 0.026066
v 0.014540 -0.016194 -0.006791
v 0.012616 -0.013639 -0.001161
v 0.024213 -0.019850 -0.026124
v 0.018293 -0.019932 -0.014176
v 0.024713 -0.017153 0.000817
v 0.025514 -0.017974 -0.003237
v 0.024964 0.003041 -0.034975
v 0.025324 -0.009321 -0.036469
v -0.050911 0.013819 0.035972
v 0.033781 -0.023977 0.018629
v 0.019108 -0.021367 0.014490
v -0.039153 -0.009955 0.003236
v -0.055661 0.013613 -0.006136
v -0.055150 0.017968 0.001632
v -0.050144 -0.008748 0.002886
v -0.032784 -0.014253 -0.019273
v -0.022274 -0.014324 -0.044910
v 0.050256 0.035295 0.012879
v 0.036007 -0.008860 -0.030424
v 0.011071 -0.012128 0.002601
v -0.057793 -0.006939 0.002254
v -0.032240 0.004471 -0.033451
v -0.042333 0.016010 -0.023025
v -0.031204 -0.016834 -0.041572
v -0.035736 -0.016093 -0.037615
v -0.038656 -0.013962 -0.033882
v -0.023976 -0.018220 -0.039567
v -0.027843 -0.018542 -0.033513
v -0.019164 -0.019890 -0.033698
v -0.007882 -0.019705 -0.031856
v 0.004098 -0.018162 -0.035656
v -0.009835 -0.018228 -0.024689
v -0.021254 -0.018463 -0.026850
v -0.033279 -0.015882 -0.027662
v -0.002303 -0.016269 -0.015715
f 164 70 149
f 182 149 105
f 182 164 149
f 182 105 164
f 158 82 164
f 158 164 105
f 162 164 82
f 162 70 164
f 178 105 149
f 178 149 187
f 148 187 149
f 148 95 187
f 148 149 70
f 148 70 95
f 138 95 137
f 138 137 187
f 138 187 95
f 91 174 35
f 68 82 33
f 68 33 70
f 31 70 33
f 23 82 97
f 23 33 82
f 23 5 33
f 29 174 91
f 29 91 92
f 167 174 75
f 167 35 174
f 161 162 82
f 161 70 162
f 161 82 68
f 161 68 70
f 128 156 97
f 128 178 156
f 128 105 178
f 135 57 58
f 135 137 188
f 135 187 137
f 93 35 94
f 93 91 35
f 93 94 92
f 93 92 91
f 96 31 33
f 96 29 92
f 96 33 29
f 96 70 31
f 96 95 70
f 96 92 95
f 98 23 97
f 98 102 47
f 98 97 156
f 98 156 102
f 4 33 5
f 4 5 98
f 4 98 47
f 4 29 33
f 4 3 174
f 4 174 29
f 60 92 94
f 60 95 92
f 177 58 57
f 177 178 187
f 177 156 178
f 177 57 156
f 177 135 58
f 177 187 135
f 111 156 57
f 111 102 156
f 173 105 128
f 173 128 97
f 173 158 105
f 173 97 82
f 173 82 158
f 189 135 188
f 189 57 135
f 189 111 57
f 189 102 111
f 189 4 102
f 24 5 23
f 24 98 5
f 24 23 98
f 44 47 102
f 44 4 47
f 44 102 4
f 84 94 35
f 195 75 80
f 195 167 75
f 195 115 167
f 172 167 115
f 172 35 167
f 172 183 35
f 172 115 60
f 181 188 137
f 181 80 188
f 181 195 80
f 114 137 95
f 114 115 137
f 114 95 60
f 114 60 115
f 74 80 75
f 74 193 80
f 74 75 174
f 74 174 193
f 2 174 3
f 2 193 174
f 2 3 193
f 191 188 80
f 191 193 188
f 191 80 193
f 192 3 4
f 192 193 3
f 192 4 189
f 192 188 193
f 192 189 188
f 85 60 94
f 85 94 84
f 83 172 60
f 83 183 172
f 83 35 183
f 83 84 35
f 81 137 115
f 81 181 137
f 81 115 195
f 81 195 181
f 61 60 85
f 61 85 84
f 61 83 60
f 61 84 83
