v 0.012362 0.002753 -0.004692
v 0.011231 0.006223 -0.001968
v -0.005303 0.001143 0.007212
v 0.001201 0.002183 0.008463
v 0.000844 0.004181 0.006767
v -0.005091 0.003263 0.005373
v 0.007547 0.005391 0.009297
v 0.005735 0.006071 0.007190
v 0.008134 0.007300 0.003257
v 0.001541 0.005471 0.001939
v 0.003510 0.004963 -0.002702
v -0.002806 0.004845 -0.004364
v -0.004917 0.005743 0.000329
v 0.007623 0.006735 -0.000790
v -0.008565 0.003235 0.003372
v -0.010347 0.000953 0.003429
v 0.011378 0.007996 0.004410
v 0.011588 0.000392 0.011792
v 0.001293 -0.000804 0.008880
v -0.005778 -0.002114 0.006686
v -0.010649 -0.001905 0.001680
v 0.001199 -0.004404 0.006916
v -0.005523 -0.004754 0.004547
v -0.009117 -0.004024 0.000228
v 0.001695 -0.007288 0.003222
v -0.004752 -0.007011 0.000708
v 0.014390 -0.007187 0.006548
v 0.013031 -0.004407 0.010408
v -0.007225 -0.005758 -0.000541
v -0.010887 0.003070 -0.001512
v -0.011330 -0.000491 -0.002701
v -0.009210 0.004308 -0.000867
v 0.004247 0.003930 -0.004580
v -0.002823 0.002970 -0.005960
v 0.004472 0.001655 -0.006253
v -0.003331 0.000864 -0.007220
v -0.008057 0.002984 -0.005896
v -0.007869 0.004429 -0.004559
v 0.015912 -0.007958 0.001000
v 0.003130 -0.007629 -0.001929
v 0.016135 -0.005631 -0.003131
v 0.013352 -0.000908 -0.005279
v 0.005092 -0.001206 -0.006703
v 0.004195 -0.005059 -0.005588
v -0.002835 -0.001257 -0.008313
v -0.001440 -0.004233 -0.006890
v -0.003060 -0.007256 -0.003286
v -0.008119 -0.001319 -0.007613
v -0.008483 0.001219 -0.006855
v -0.010030 -0.002622 -0.003220
v -0.005863 -0.003881 -0.006807
v -0.007429 -0.005165 -0.003433
f 1 17 41
f 7 18 17
f 29 47 26
f 45 35 1
f 39 41 17
f 8 7 17
f 13 8 17
f 13 15 8
f 14 13 17
f 14 38 13
f 23 29 26
f 3 18 7
f 16 30 31
f 16 15 30
f 16 3 15
f 16 20 3
f 42 1 41
f 42 41 45
f 42 45 1
f 40 26 47
f 40 41 39
f 33 1 35
f 33 35 34
f 49 45 48
f 49 31 30
f 49 48 31
f 32 13 38
f 32 38 30
f 32 15 13
f 32 30 15
f 25 23 26
f 25 39 27
f 25 26 40
f 25 40 39
f 28 25 27
f 28 23 25
f 28 27 39
f 28 17 18
f 28 39 17
f 19 18 3
f 19 3 20
f 19 28 18
f 19 20 28
f 6 15 3
f 6 3 7
f 6 8 15
f 6 7 8
f 21 16 31
f 21 23 20
f 21 20 16
f 44 47 46
f 44 41 40
f 44 40 47
f 44 45 41
f 44 46 45
f 50 31 48
f 50 21 31
f 51 45 46
f 51 48 45
f 51 46 47
f 2 1 33
f 2 17 1
f 2 14 17
f 36 45 49
f 36 35 45
f 36 34 35
f 22 20 23
f 22 28 20
f 22 23 28
f 24 29 23
f 24 23 21
f 24 21 50
f 52 29 24
f 52 24 50
f 52 47 29
f 52 51 47
f 52 50 48
f 52 48 51
f 12 33 34
f 12 2 33
f 12 38 14
f 12 14 2
f 37 34 36
f 37 36 49
f 37 38 12
f 37 12 34
f 37 30 38
f 37 49 30
