v 0.012700 -0.000242 -0.002176
v 0.010004 0.004467 -0.002511
v -0.004798 0.002484 0.002427
v -0.000719 0.003871 0.004883
v -0.000405 0.004558 0.003702
v -0.004652 0.003671 0.001655
v 0.004607 0.007028 0.006612
v 0.003828 0.006909 0.004660
v 0.007045 0.007199 0.002161
v 0.001639 0.005366 -0.000526
v 0.004049 0.002197 -0.005100
v -0.000483 0.001502 -0.006797
v -0.002173 0.004667 -0.002727
v 0.007650 0.005183 -0.002292
v -0.006964 0.003613 -0.000693
v -0.008825 0.002687 -0.000357
v 0.009091 0.008247 0.002993
v 0.004939 0.004446 0.010598
v -0.001957 0.001872 0.006438
v -0.007078 0.000691 0.003085
v -0.009728 -0.000036 -0.000948
v -0.000653 -0.000553 0.007584
v -0.006880 -0.002028 0.003619
v -0.008937 -0.002799 -0.000212
v 0.001133 -0.003681 0.007365
v -0.004696 -0.004384 0.003290
v 0.008381 -0.002079 0.011665
v 0.006253 0.001187 0.011938
v -0.007056 -0.004090 0.000139
v -0.007575 0.002332 -0.004773
v -0.008827 -0.001155 -0.004781
v -0.005775 0.003508 -0.004652
v 0.004897 0.000933 -0.005684
v -0.000707 -0.000370 -0.007992
v 0.005798 -0.001827 -0.005525
v -0.000791 -0.002873 -0.007624
v -0.005059 0.000180 -0.007707
v -0.003668 0.002272 -0.006609
v 0.011181 -0.004038 0.008679
v 0.003672 -0.005660 0.004667
v 0.013117 -0.004573 0.004079
v 0.013453 -0.002834 0.000171
v 0.006039 -0.004218 -0.003426
v 0.005320 -0.005901 -0.000104
v -0.001250 -0.004944 -0.005930
v -0.001443 -0.006503 -0.002628
v -0.002646 -0.006416 0.001007
v -0.005816 -0.003977 -0.005547
v -0.005893 -0.002363 -0.007148
v -0.007859 -0.003293 -0.003634
v -0.005317 -0.005294 -0.003534
v -0.006161 -0.004942 -0.001783
f 18 28 17
f 18 17 7
f 16 18 7
f 8 7 17
f 1 17 42
f 1 2 17
f 14 32 17
f 14 17 2
f 41 42 17
f 41 17 39
f 41 44 42
f 24 23 21
f 24 26 23
f 19 28 18
f 13 17 32
f 15 32 16
f 15 13 32
f 15 16 7
f 15 7 8
f 15 8 17
f 15 17 13
f 33 34 2
f 33 2 1
f 36 37 34
f 12 2 34
f 12 14 2
f 22 28 19
f 22 19 23
f 25 26 47
f 25 28 22
f 25 23 26
f 25 22 23
f 43 42 44
f 43 45 36
f 46 44 47
f 46 47 51
f 46 51 45
f 46 45 43
f 46 43 44
f 30 32 37
f 30 21 16
f 30 16 32
f 29 47 26
f 29 26 24
f 49 36 45
f 49 37 36
f 20 18 16
f 20 19 18
f 20 23 19
f 20 21 23
f 20 16 21
f 35 34 33
f 35 33 1
f 35 36 34
f 35 43 36
f 35 1 42
f 35 42 43
f 38 32 14
f 38 14 12
f 38 37 32
f 38 34 37
f 38 12 34
f 40 25 47
f 40 47 44
f 40 41 39
f 40 44 41
f 27 28 25
f 27 17 28
f 27 39 17
f 27 40 39
f 27 25 40
f 52 29 24
f 52 24 50
f 52 50 51
f 52 51 47
f 52 47 29
f 48 45 51
f 48 49 45
f 48 51 50
f 31 24 21
f 31 50 24
f 31 21 30
f 31 48 50
f 31 49 48
f 31 30 37
f 31 37 49
