v 0.016618 0.007496 0.007834
v 0.016321 0.001159 -0.007497
v 0.010846 0.003845 -0.007196
v 0.007749 0.007529 -0.003956
v 0.000865 0.002848 0.008159
v 0.006438 0.006245 0.007327
v 0.003871 0.006658 0.005904
v -0.001304 0.004226 0.005843
v -0.006881 0.003168 0.004532
v -0.005339 0.001248 0.007423
v 0.006489 0.008272 0.001865
v -0.000629 0.005482 0.001164
v -0.000115 0.005013 -0.003223
v -0.006184 0.003765 -0.003564
v -0.006938 0.004575 0.000373
v 0.004600 0.007339 -0.002471
v 0.008954 0.009123 0.001765
v -0.009831 0.000374 0.004787
v -0.009914 0.002862 0.003336
v -0.009898 0.003260 -0.000216
v -0.012195 0.000434 -0.000285
v 0.011192 0.002183 0.009912
v 0.001722 0.000395 0.009111
v -0.004299 -0.001913 0.006779
v -0.008865 -0.002493 0.004125
v 0.001831 -0.003495 0.007068
v -0.003306 -0.004336 0.005053
v -0.006977 -0.005044 0.002332
v 0.002090 -0.006040 0.003553
v -0.002671 -0.006114 0.002239
v 0.015905 -0.004506 0.005473
v 0.015199 -0.001675 0.009028
v -0.005661 -0.006772 0.001269
v -0.011896 -0.001964 -0.001155
v 0.002425 0.003745 -0.006201
v -0.005104 0.001148 -0.005664
v 0.003255 0.001486 -0.007260
v -0.004311 -0.000799 -0.007304
v -0.010111 0.000794 -0.005265
v -0.009206 0.002717 -0.003227
v 0.016464 -0.005778 -0.000987
v 0.002731 -0.007206 -0.001341
v 0.015023 -0.004778 -0.005260
v 0.010822 -0.000183 -0.007609
v 0.002798 -0.001740 -0.007507
v 0.003013 -0.004968 -0.006128
v -0.003136 -0.003285 -0.007020
v -0.002310 -0.005250 -0.005278
v -0.002500 -0.007020 -0.001629
v -0.007382 -0.004274 -0.005372
v -0.009314 -0.001621 -0.005866
v -0.009075 -0.004692 -0.001563
v -0.005630 -0.005542 -0.004727
v -0.006240 -0.005902 -0.001482
f 43 41 42
f 2 4 1
f 2 43 44
f 2 1 41
f 2 41 43
f 6 22 1
f 31 42 41
f 31 41 1
f 37 44 38
f 49 42 33
f 49 53 42
f 49 33 53
f 47 53 50
f 5 23 22
f 5 22 6
f 17 1 4
f 39 34 21
f 52 34 50
f 52 33 34
f 52 50 53
f 52 53 33
f 25 34 33
f 29 33 42
f 29 42 31
f 32 22 23
f 32 1 22
f 32 31 1
f 46 53 47
f 46 43 42
f 46 42 53
f 46 44 43
f 7 19 9
f 7 6 1
f 7 1 17
f 15 19 7
f 15 7 17
f 35 38 39
f 51 39 38
f 51 47 50
f 51 38 47
f 51 50 34
f 51 34 39
f 10 23 5
f 10 9 19
f 10 7 9
f 10 5 6
f 10 6 7
f 27 25 33
f 45 44 46
f 45 46 47
f 45 38 44
f 45 47 38
f 14 40 15
f 14 39 40
f 14 4 35
f 14 35 39
f 16 17 4
f 16 15 17
f 16 4 14
f 16 14 15
f 20 19 15
f 20 15 40
f 20 21 19
f 20 39 21
f 20 40 39
f 3 37 38
f 3 38 35
f 3 2 44
f 3 44 37
f 3 4 2
f 3 35 4
f 18 10 19
f 18 19 21
f 18 21 34
f 18 34 25
f 24 25 27
f 24 18 25
f 24 10 18
f 24 23 10
f 26 29 31
f 26 31 32
f 26 33 29
f 26 27 33
f 26 24 27
f 26 32 23
f 26 23 24
