v 0.005794 -0.003613 0.009246
v 0.008224 -0.006649 0.004416
v 0.013410 -0.006962 0.006480
v 0.010699 -0.003379 0.011091
v 0.006585 0.010309 0.006724
v 0.004833 0.006323 0.009980
v 0.009312 0.007211 0.012137
v 0.012505 0.011846 0.009018
v 0.007218 0.010394 0.000565
v 0.015319 0.012935 0.002912
v 0.004748 0.001066 0.010349
v 0.008850 0.001605 0.012307
v 0.015035 -0.007223 0.001027
v 0.015774 -0.004487 -0.002796
v 0.016537 0.008562 -0.004028
v -0.007792 -0.000118 -0.011301
v 0.011090 0.001277 -0.006637
v 0.010285 -0.004766 -0.004216
v -0.008162 -0.004885 -0.010821
v 0.015951 0.001490 -0.005747
v 0.010328 0.007186 -0.005190
v -0.012058 -0.006793 0.002512
v -0.009689 -0.009318 -0.002127
v -0.011322 -0.002385 0.004414
v -0.010980 0.005176 0.001720
v -0.011463 0.001265 0.004161
v 0.009894 -0.007102 -0.000716
v -0.008621 -0.008477 -0.007675
v -0.007500 0.004328 -0.008860
v -0.008387 0.007462 -0.003414
v -0.013027 0.002674 -0.011113
v -0.014011 0.005492 -0.005329
v -0.017554 0.000278 0.002260
v -0.017384 -0.003479 0.002549
v -0.013837 -0.001539 -0.013309
v -0.012210 -0.008857 -0.008256
v -0.015218 -0.007249 0.000988
v -0.013177 -0.009598 -0.003320
f 7 33 12
f 34 33 35
f 34 12 33
f 20 35 15
f 36 13 38
f 36 38 34
f 36 34 35
f 10 13 15
f 10 30 8
f 23 22 38
f 23 38 13
f 4 12 34
f 4 34 22
f 4 7 12
f 4 8 7
f 31 15 35
f 31 10 15
f 31 30 10
f 25 33 7
f 25 7 8
f 37 38 22
f 37 34 38
f 37 22 34
f 19 35 20
f 19 36 35
f 3 10 8
f 3 13 10
f 3 8 4
f 3 23 13
f 3 22 23
f 3 4 22
f 32 35 33
f 32 31 35
f 32 30 31
f 32 33 25
f 32 25 30
f 5 8 30
f 5 25 8
f 5 30 25
f 14 19 20
f 14 15 13
f 14 20 15
f 28 36 19
f 28 19 14
f 28 13 36
f 28 14 13
