v 0.014810 0.006129 0.010243
v 0.017179 -0.003614 -0.002245
v 0.012554 -0.000498 -0.004488
v 0.010530 0.004515 -0.003067
v -0.006865 0.003840 0.003788
v -0.000464 0.003857 0.005601
v -0.000506 0.004558 0.004577
v -0.006549 0.005027 0.002321
v 0.006766 0.005951 0.006748
v 0.005045 0.006235 0.005172
v 0.007401 0.006605 0.001726
v 0.000447 0.006197 -0.000815
v 0.003086 0.002642 -0.005510
v -0.002471 0.002840 -0.006787
v -0.005232 0.006417 -0.002708
v 0.008114 0.004867 -0.002598
v -0.009161 0.004937 0.000032
v -0.011099 0.004739 0.001669
v 0.010008 0.006755 0.002499
v 0.007602 0.002652 0.010621
v -0.000851 0.001632 0.007584
v -0.007657 0.001154 0.006044
v -0.011160 0.000713 0.002423
v -0.000341 -0.002272 0.007655
v -0.006588 -0.002199 0.005486
v -0.009816 -0.002564 0.002280
v 0.000666 -0.005073 0.006308
v -0.004981 -0.004721 0.003883
v 0.012392 -0.005120 0.010371
v 0.009719 -0.001229 0.011494
v -0.008111 -0.004318 0.001714
v -0.010634 0.004246 -0.003848
v -0.011314 -0.000395 -0.003898
v -0.008412 0.004748 -0.003356
v 0.004345 0.001366 -0.006304
v -0.002721 0.000997 -0.008721
v 0.005006 -0.001483 -0.006323
v -0.002290 -0.002134 -0.008850
v -0.007272 0.002248 -0.008233
v -0.006590 0.003132 -0.007112
v 0.014239 -0.007488 0.006348
v 0.001673 -0.007056 0.002176
v 0.015269 -0.007142 0.001474
v 0.011813 -0.003993 -0.003509
v 0.004594 -0.004406 -0.004905
v 0.003121 -0.006709 -0.002311
v -0.002141 -0.004707 -0.007187
v -0.001783 -0.006008 -0.004293
v -0.003917 -0.006996 0.000267
v -0.006605 -0.003689 -0.006459
v -0.007348 -0.000974 -0.008419
v -0.009988 -0.003494 -0.002658
v -0.005569 -0.005411 -0.004414
v -0.007945 -0.005306 -0.001488
f 4 1 2
f 4 19 1
f 32 33 18
f 41 2 1
f 10 1 19
f 10 18 1
f 20 30 1
f 20 1 18
f 3 4 2
f 3 36 4
f 39 33 32
f 39 4 36
f 23 18 33
f 23 33 52
f 22 20 18
f 22 18 23
f 22 25 30
f 22 30 20
f 38 36 3
f 38 2 47
f 38 3 2
f 15 39 32
f 15 19 4
f 15 32 18
f 15 10 19
f 15 18 10
f 43 41 49
f 43 2 41
f 43 47 2
f 53 47 48
f 53 48 49
f 24 30 25
f 27 49 41
f 27 28 49
f 27 25 28
f 27 24 25
f 26 23 52
f 26 25 22
f 26 22 23
f 51 39 36
f 51 36 38
f 51 33 39
f 51 52 33
f 51 38 47
f 40 4 39
f 40 15 4
f 40 39 15
f 46 49 48
f 46 43 49
f 46 48 47
f 46 47 43
f 54 53 49
f 54 52 53
f 54 26 52
f 29 27 41
f 29 1 30
f 29 41 1
f 29 30 24
f 29 24 27
f 31 28 25
f 31 25 26
f 31 49 28
f 31 54 49
f 31 26 54
f 50 47 53
f 50 51 47
f 50 53 52
f 50 52 51
