v 0.011451 -0.005693 0.007357
v 0.012620 -0.006321 0.000738
v 0.011241 0.008555 0.010187
v 0.010481 0.002399 0.011917
v 0.012536 0.011579 0.004321
v 0.010647 -0.002711 0.010375
v -0.000887 0.003661 -0.007896
v 0.013226 0.004306 -0.007305
v 0.012816 -0.001105 -0.006716
v -0.002015 -0.001589 -0.008897
v 0.013585 0.009463 -0.003627
v -0.005887 -0.008058 0.002695
v -0.005041 -0.009002 -0.003833
v -0.006329 -0.005047 0.006378
v -0.002853 0.005630 0.007255
v -0.005069 -0.000964 0.008215
v 0.012803 -0.005354 -0.004319
v -0.003916 -0.006230 -0.008037
v -0.000462 0.007549 -0.004935
v -0.000083 0.009459 0.002061
v -0.006907 0.006321 -0.005599
v -0.006953 0.008135 0.000689
v -0.009676 0.004473 0.006357
v -0.011140 -0.001591 0.007014
v -0.011260 -0.005479 0.005248
v -0.007540 0.002969 -0.008717
v -0.008793 -0.001955 -0.010100
v -0.008109 -0.006777 -0.008019
v -0.009917 -0.007914 0.001448
v -0.008568 -0.008708 -0.004254
f 12 13 1
f 6 1 4
f 8 26 11
f 17 13 18
f 17 8 11
f 28 13 30
f 28 18 13
f 23 22 21
f 23 21 26
f 29 30 13
f 29 13 12
f 29 25 30
f 29 12 25
f 14 1 6
f 14 25 12
f 14 12 1
f 2 1 13
f 2 13 17
f 2 17 11
f 2 11 5
f 2 5 1
f 9 17 18
f 9 8 17
f 27 18 28
f 27 9 18
f 27 8 9
f 27 26 8
f 27 23 26
f 27 30 25
f 27 28 30
f 19 21 22
f 19 5 11
f 19 11 26
f 19 26 21
f 24 4 23
f 24 25 14
f 24 27 25
f 24 23 27
f 24 6 4
f 24 14 6
f 3 23 4
f 3 4 1
f 3 1 5
f 20 22 23
f 20 23 3
f 20 3 5
f 20 19 22
f 20 5 19
