v 0.000850 -0.001744 0.008479
v 0.002278 -0.005077 0.005918
v 0.006639 -0.005077 0.007842
v 0.005384 -0.002500 0.011187
v 0.005166 0.009567 0.005137
v 0.001923 0.006417 0.007926
v 0.006471 0.007551 0.011376
v 0.009833 0.010973 0.008455
v 0.008671 0.008961 0.000721
v 0.013176 0.009566 0.003287
v 0.000715 0.002294 0.008841
v 0.004685 0.002047 0.012322
v 0.008960 -0.007172 0.004586
v 0.011657 -0.006461 0.000341
v 0.014768 0.004394 -0.001561
v -0.000242 -0.003372 -0.009899
v 0.009614 -0.002813 -0.004350
v 0.007048 -0.006666 -0.001773
v -0.001710 -0.005903 -0.008373
v 0.009929 0.003466 -0.003843
v -0.008835 -0.002777 0.002397
v -0.006082 -0.006362 -0.000850
v -0.008852 0.000768 0.002949
v -0.005651 0.006861 -0.001042
v -0.008682 0.004223 0.001619
v 0.004263 -0.006784 0.002368
v -0.003516 -0.007065 -0.004935
v -0.000148 0.001292 -0.009442
v -0.001622 0.006558 -0.005427
v -0.005246 0.001014 -0.012511
v -0.006948 0.005551 -0.007748
v -0.011574 0.005464 -0.002949
v -0.012510 0.002707 -0.000067
v -0.012539 -0.000576 0.001170
v -0.004915 -0.003822 -0.012636
v -0.005805 -0.006329 -0.010712
v -0.006640 -0.007696 -0.006753
v -0.011777 -0.004697 0.000287
v -0.008738 -0.006782 -0.002336
f 7 12 4
f 7 4 8
f 9 15 30
f 38 12 34
f 38 4 12
f 38 37 39
f 35 30 15
f 32 7 8
f 32 8 24
f 32 30 35
f 10 15 9
f 10 9 8
f 10 14 15
f 10 8 4
f 17 15 14
f 17 35 15
f 17 14 35
f 36 37 38
f 36 14 37
f 36 35 14
f 36 38 32
f 36 32 35
f 33 34 12
f 33 12 7
f 33 38 34
f 33 32 38
f 31 32 24
f 31 24 8
f 31 8 9
f 31 30 32
f 13 10 4
f 13 14 10
f 13 4 3
f 13 37 14
f 13 39 37
f 13 3 39
f 2 4 38
f 2 3 4
f 2 38 39
f 2 39 3
f 25 7 32
f 25 33 7
f 25 32 33
f 29 9 30
f 29 30 31
f 29 31 9
