v 0.011815 -0.011093 0.004897
v 0.015697 -0.002450 -0.004996
v 0.015820 0.004328 -0.005508
v 0.013313 -0.011432 -0.000635
v 0.012808 -0.008908 -0.003483
v 0.004082 -0.004523 0.013517
v 0.014047 0.005922 0.013694
v 0.012594 0.011038 -0.000269
v 0.007545 0.009033 0.005995
v 0.002448 0.003080 0.009987
v -0.015044 0.011552 -0.000316
v -0.018953 0.006413 0.002705
v -0.002355 0.004383 0.007693
v 0.000149 0.010303 0.004054
v -0.011864 -0.007419 -0.011256
v -0.012996 -0.009629 -0.006907
v 0.002055 -0.006618 0.008396
v 0.006161 -0.008192 0.004032
v -0.002239 -0.001991 0.008871
v -0.011106 -0.000285 -0.014395
v -0.010433 0.007751 -0.013616
v 0.005714 0.005831 -0.008017
v 0.006416 -0.000633 -0.007123
v -0.019733 0.000529 0.003368
v -0.014630 -0.008829 -0.001945
v -0.018015 -0.005455 0.002225
v -0.011957 0.011588 -0.006554
v 0.003796 0.011572 -0.002266
v 0.007178 -0.006988 -0.002426
v 0.007690 -0.008877 0.000276
f 2 20 3
f 2 3 7
f 2 7 4
f 12 7 11
f 12 24 6
f 12 6 7
f 12 20 24
f 8 7 3
f 1 4 7
f 1 7 6
f 1 16 4
f 15 4 16
f 15 24 20
f 14 11 7
f 14 7 8
f 14 8 11
f 21 20 12
f 21 12 11
f 21 3 20
f 21 8 3
f 25 1 6
f 25 16 1
f 5 20 2
f 5 15 20
f 5 2 4
f 5 4 15
f 27 21 11
f 26 6 24
f 26 25 6
f 26 16 25
f 26 24 15
f 26 15 16
f 28 8 21
f 28 21 27
f 28 11 8
f 28 27 11
