v -0.017190 -0.006202 -0.013513
v 0.008637 -0.010446 -0.005842
v 0.018346 -0.004523 0.001815
v 0.001850 -0.003085 0.011787
v -0.003547 -0.008977 0.004506
v -0.023010 -0.006251 -0.005424
v 0.027850 -0.004205 -0.008055
v 0.021215 0.007326 0.006609
v 0.003739 0.005958 0.014922
v 0.019397 0.019732 0.002789
v 0.002467 0.016109 0.012895
v 0.003891 -0.009459 -0.023557
v 0.020304 -0.009408 -0.021203
v -0.005660 -0.011106 -0.009745
v -0.013128 -0.006512 0.010206
v -0.019564 -0.004412 0.003602
v 0.002029 0.023999 0.005308
v -0.013723 -0.008806 -0.001493
v -0.026066 -0.001571 0.000416
v -0.007839 0.021837 0.013975
f 20 17 19
f 10 12 17
f 10 17 20
f 1 12 14
f 1 19 17
f 1 17 12
f 13 14 12
f 13 10 7
f 13 12 10
f 8 7 10
f 11 20 9
f 11 10 20
f 11 9 8
f 11 8 10
f 6 1 14
f 6 19 1
f 3 7 8
f 15 9 20
f 15 20 19
f 15 19 6
f 2 3 5
f 2 14 13
f 2 5 14
f 2 13 7
f 2 7 3
f 4 5 3
f 4 15 5
f 4 9 15
f 4 8 9
f 4 3 8
f 18 14 5
f 18 5 15
f 18 6 14
f 18 15 6
