v -0.015491 -0.007399 0.001426
v -0.016862 0.010407 0.001705
v -0.011358 0.008971 0.006695
v -0.011125 0.004441 0.010037
v 0.006878 0.003830 0.009560
v 0.005708 0.009280 0.005899
v 0.008575 -0.005528 -0.009390
v 0.011543 -0.009877 -0.005070
v 0.007960 -0.008050 -0.005155
v 0.004293 -0.005130 -0.009497
v -0.011334 -0.002839 -0.009100
v -0.011427 -0.007133 -0.005354
v -0.016161 -0.006199 -0.004711
v -0.016442 -0.001897 -0.008464
v 0.013525 -0.010451 0.000481
v 0.015560 -0.008689 0.006433
v 0.008518 -0.007489 0.005692
v 0.007902 -0.008536 -0.000067
v 0.014371 -0.002840 0.009767
v 0.008151 -0.002362 0.009448
v -0.011283 0.003781 -0.009300
v -0.011266 0.010221 -0.005099
v 0.003862 0.009422 -0.007108
v 0.001825 0.002109 -0.009900
v -0.010582 -0.000988 0.010181
v -0.010631 -0.008763 0.001140
v -0.010461 -0.006615 0.007162
v -0.011786 0.010937 0.000562
v 0.014158 0.003640 0.009148
v 0.013723 0.009303 0.005081
v 0.006223 0.011679 -0.000535
v 0.009077 0.000791 -0.010494
v 0.014357 0.011973 -0.001174
f 29 16 33
f 8 32 33
f 28 22 2
f 23 33 32
f 23 22 33
f 14 13 2
f 14 2 22
f 3 28 2
f 3 6 33
f 19 16 29
f 19 27 16
f 15 33 16
f 15 8 33
f 30 29 33
f 30 33 6
f 30 6 29
f 31 33 22
f 31 22 28
f 31 3 33
f 31 28 3
f 21 23 32
f 21 32 11
f 21 11 14
f 21 22 23
f 21 14 22
f 4 3 2
f 4 6 3
f 26 8 15
f 26 16 27
f 26 15 16
f 10 11 32
f 12 13 14
f 12 14 11
f 12 11 10
f 12 10 8
f 12 26 13
f 12 8 26
f 25 27 19
f 25 19 4
f 25 4 2
f 5 19 29
f 5 4 19
f 5 29 6
f 5 6 4
f 1 13 26
f 1 26 27
f 1 27 25
f 1 2 13
f 1 25 2
f 7 32 8
f 7 10 32
f 7 8 10
