v 0.018128 0.000225 0.013903
v 0.021960 0.005970 0.013516
v 0.017983 -0.006034 -0.007175
v 0.015027 -0.004724 0.013489
v 0.019616 0.001858 -0.007829
v -0.012985 -0.007004 -0.002723
v -0.014162 -0.005995 0.002445
v -0.015262 0.002566 0.006896
v -0.014439 0.008204 0.003533
v -0.012792 0.010144 -0.002259
v -0.009650 0.009282 0.004389
v -0.009833 0.002891 0.007632
v 0.011455 0.002028 0.010728
v 0.011218 0.008943 0.007981
v 0.014370 -0.009375 -0.003053
v 0.013165 -0.006279 -0.005236
v -0.015027 -0.002511 0.005633
v -0.007061 -0.005436 -0.010003
v -0.007514 -0.008868 -0.005791
v -0.012839 -0.006890 -0.007621
v -0.012601 -0.002883 -0.011321
v 0.013591 -0.006629 0.008755
v 0.014957 -0.008853 0.002888
v 0.012051 -0.003106 0.010331
v -0.006972 0.000917 -0.011796
v -0.007171 0.007521 -0.009996
v 0.012083 0.008602 -0.006353
v 0.011822 0.001987 -0.008354
v -0.009875 -0.002851 0.007391
v -0.008360 -0.009216 -0.000357
v -0.009188 -0.007576 0.004355
v -0.008079 0.010669 -0.002578
v -0.012746 0.007866 -0.009721
v -0.012707 0.002694 -0.012463
v 0.011836 0.011865 0.000764
f 3 5 2
f 1 2 8
f 1 8 4
f 1 4 2
f 11 8 2
f 10 11 32
f 35 2 5
f 35 32 11
f 17 8 34
f 25 34 5
f 25 5 3
f 23 15 3
f 23 30 15
f 23 2 4
f 23 3 2
f 9 8 11
f 9 11 10
f 33 10 32
f 33 32 35
f 33 9 10
f 33 34 8
f 33 8 9
f 14 11 2
f 14 2 35
f 14 35 11
f 19 15 30
f 19 30 20
f 19 3 15
f 31 30 23
f 6 20 30
f 18 19 20
f 18 3 19
f 27 35 5
f 27 33 35
f 29 31 4
f 29 17 31
f 29 4 8
f 29 8 17
f 22 23 4
f 22 4 31
f 22 31 23
f 7 30 31
f 7 6 30
f 7 31 17
f 7 17 20
f 7 20 6
f 21 25 3
f 21 3 18
f 21 34 25
f 21 18 20
f 21 17 34
f 21 20 17
f 26 34 33
f 26 33 27
f 26 5 34
f 26 27 5
