v 0.010182 -0.006143 0.006656
v 0.010835 -0.007176 0.000467
v 0.010059 0.007499 0.008913
v 0.009627 0.001741 0.010893
v 0.011113 0.010212 0.003035
v 0.009679 -0.003183 0.009527
v -0.001026 0.003565 -0.007779
v 0.011289 0.003368 -0.007573
v 0.010944 -0.001749 -0.007148
v -0.002110 -0.001233 -0.008627
v 0.011637 0.008187 -0.004055
v -0.005250 -0.007220 0.002843
v -0.004790 -0.007870 -0.003174
v -0.005408 -0.004453 0.006351
v -0.002209 0.005267 0.007029
v -0.004230 -0.000799 0.008121
v 0.010941 -0.005975 -0.004516
v -0.003873 -0.005396 -0.007193
v -0.000559 0.007100 -0.004915
v 0.000076 0.008854 0.001774
v -0.005911 0.006437 -0.005013
v -0.005860 0.007819 0.001061
v -0.008124 0.004366 0.006537
v -0.009418 -0.001127 0.007243
v -0.009633 -0.004668 0.005470
v -0.006581 0.003472 -0.007945
v -0.007673 -0.000983 -0.009232
v -0.007383 -0.005532 -0.007149
v -0.008637 -0.006962 0.001889
v -0.007707 -0.007418 -0.003494
f 12 1 25
f 6 1 4
f 7 26 11
f 5 4 1
f 23 22 21
f 23 21 26
f 29 30 13
f 29 13 12
f 29 25 30
f 29 12 25
f 14 25 1
f 14 1 6
f 8 7 11
f 8 26 7
f 17 13 18
f 17 8 11
f 28 13 30
f 28 18 13
f 28 30 25
f 19 11 26
f 19 26 21
f 19 5 11
f 24 4 23
f 24 25 14
f 24 14 6
f 3 22 23
f 3 4 5
f 3 23 4
f 2 13 17
f 2 12 13
f 2 1 12
f 2 17 11
f 2 11 5
f 2 5 1
f 9 18 10
f 9 17 18
f 9 10 8
f 9 8 17
f 27 10 18
f 27 18 28
f 27 26 8
f 27 8 10
f 27 28 25
f 27 25 24
f 27 23 26
f 27 24 23
f 16 6 4
f 16 4 24
f 16 24 6
f 20 22 3
f 20 3 5
f 20 5 19
f 20 21 22
f 20 19 21
