v 0.019288 0.013381 -0.007387
v 0.023383 0.001166 -0.003569
v 0.007879 0.011409 -0.010738
v 0.003645 0.008699 -0.001695
v -0.000826 -0.006503 0.008941
v 0.004868 -0.006050 0.005237
v 0.004001 -0.003318 0.006156
v -0.000719 -0.003894 0.009958
v 0.009007 -0.002905 0.003477
v 0.007012 -0.001433 0.004028
v 0.006278 0.003544 0.002350
v 0.002010 0.002904 0.005690
v 0.002852 0.006850 0.000237
v -0.000958 0.006585 0.001457
v -0.002390 0.002425 0.008961
v -0.003716 -0.002305 0.012206
v -0.006344 0.001650 0.011482
v -0.005604 -0.004931 0.011169
v 0.007856 0.004721 0.002977
v 0.013736 -0.006310 -0.001225
v 0.005812 -0.008536 0.002251
v -0.001465 -0.008801 0.005769
v -0.006917 -0.006485 0.008454
v 0.004740 -0.009973 -0.002160
v -0.002162 -0.009068 0.001151
v -0.007146 -0.006410 0.003145
v 0.002667 -0.008784 -0.006629
v -0.003321 -0.007418 -0.002447
v 0.013526 -0.006367 -0.013990
v 0.015090 -0.008276 -0.007595
v -0.006465 -0.005723 0.000285
v -0.009154 0.000408 0.011205
v -0.010639 -0.001328 0.008015
v -0.001838 0.008185 -0.001653
v -0.005147 0.006635 0.004843
v -0.006754 0.006848 0.001925
v -0.001974 0.008242 -0.005873
v -0.007820 0.006133 -0.000856
v -0.009626 0.004839 0.006616
v -0.007022 0.005100 0.008257
v 0.010930 -0.001309 -0.017963
v 0.000497 -0.003957 -0.010968
v 0.007713 0.004182 -0.018465
v 0.006816 0.009318 -0.015053
v -0.002425 0.006225 -0.009247
v -0.001565 0.001909 -0.011583
v -0.007820 0.003456 -0.003581
v -0.006871 0.000738 -0.004894
v -0.005397 -0.004029 -0.004523
v -0.010085 0.001102 0.000684
v -0.010732 0.003513 0.003602
v -0.009962 -0.002564 0.003232
v -0.008607 -0.000332 -0.001454
v -0.008137 -0.003159 -0.000213
f 19 2 1
f 19 16 2
f 30 29 2
f 30 21 24
f 44 1 43
f 44 3 1
f 36 1 3
f 17 16 19
f 17 1 40
f 17 19 1
f 42 49 46
f 42 28 49
f 42 46 43
f 48 46 49
f 5 6 2
f 52 51 50
f 20 30 2
f 20 21 30
f 20 2 6
f 20 5 21
f 20 6 5
f 45 43 46
f 45 44 43
f 35 40 1
f 35 1 36
f 35 39 40
f 35 36 39
f 32 16 17
f 32 17 40
f 32 40 39
f 27 42 29
f 27 28 42
f 27 30 24
f 27 29 30
f 27 24 25
f 27 25 28
f 41 42 43
f 41 29 42
f 41 43 1
f 41 1 2
f 41 2 29
f 53 48 49
f 53 50 48
f 53 52 50
f 18 5 16
f 18 16 32
f 18 32 23
f 8 2 16
f 8 5 2
f 8 16 5
f 26 23 52
f 26 25 23
f 26 28 25
f 22 23 25
f 22 18 23
f 22 5 18
f 22 21 5
f 22 24 21
f 22 25 24
f 47 48 50
f 47 50 51
f 47 46 48
f 47 45 46
f 37 3 44
f 37 44 45
f 37 36 3
f 33 52 23
f 33 23 32
f 33 51 52
f 33 39 51
f 33 32 39
f 54 53 49
f 54 52 53
f 54 26 52
f 31 49 28
f 31 28 26
f 31 54 49
f 31 26 54
f 38 47 51
f 38 51 39
f 38 39 36
f 38 36 37
f 38 45 47
f 38 37 45
