v 0.000065 -0.002178 0.007504
v 0.001478 -0.005207 0.005201
v 0.005186 -0.005530 0.006716
v 0.003998 -0.003110 0.009773
v 0.003846 0.007952 0.004367
v 0.001016 0.005237 0.006916
v 0.004740 0.005406 0.009544
v 0.007537 0.008156 0.006976
v 0.006767 0.007491 0.000247
v 0.010495 0.007339 0.002537
v -0.000063 0.001582 0.007921
v 0.003290 0.000866 0.010708
v 0.007407 -0.007132 0.003670
v 0.009905 -0.006215 -0.000171
v 0.012297 0.003035 -0.001540
v 0.000381 -0.002439 -0.008807
v 0.008456 -0.002682 -0.004169
v 0.006103 -0.006258 -0.001872
v -0.000971 -0.004872 -0.007428
v 0.008477 0.003058 -0.003786
v -0.007552 -0.002063 0.002367
v -0.005130 -0.005463 -0.000716
v -0.007647 0.001144 0.002969
v -0.004676 0.006895 -0.000682
v -0.007269 0.004397 0.001853
v 0.003440 -0.006645 0.001917
v -0.002844 -0.006151 -0.004417
v 0.000608 0.001978 -0.008516
v -0.000977 0.006685 -0.005008
v -0.003533 0.001927 -0.010564
v -0.005024 0.006253 -0.006559
v -0.009197 0.005932 -0.002036
v -0.010198 0.003375 0.000509
v -0.010428 0.000324 0.001478
v -0.003433 -0.002535 -0.010817
v -0.004236 -0.005051 -0.009137
v -0.005248 -0.006427 -0.005731
v -0.009794 -0.003440 0.000642
v -0.007272 -0.005637 -0.001857
f 14 15 13
f 8 7 12
f 17 15 14
f 37 13 39
f 10 13 15
f 4 8 12
f 4 13 10
f 4 10 8
f 32 31 30
f 32 7 8
f 32 30 35
f 29 30 31
f 36 17 14
f 36 35 16
f 36 16 17
f 36 32 35
f 3 13 4
f 38 12 34
f 38 4 12
f 38 32 36
f 38 37 39
f 38 36 37
f 24 31 32
f 24 29 31
f 33 34 12
f 33 12 7
f 33 38 34
f 33 32 38
f 20 30 29
f 9 8 10
f 9 20 29
f 9 10 15
f 9 15 20
f 18 36 14
f 18 37 36
f 18 14 13
f 18 13 37
f 2 3 4
f 2 4 38
f 2 38 39
f 2 39 13
f 2 13 3
f 5 32 8
f 5 24 32
f 5 29 24
f 5 8 9
f 5 9 29
f 25 7 32
f 25 33 7
f 25 32 33
f 28 30 20
f 28 35 30
f 28 16 35
f 28 17 16
f 28 15 17
f 28 20 15
