v 0.000636 0.011195 -0.009974
v -0.002245 0.006485 -0.012062
v 0.005388 0.013974 -0.004697
v 0.006689 -0.008780 -0.006127
v 0.001311 -0.006300 -0.011307
v 0.019140 -0.006845 -0.004606
v 0.012292 -0.006580 -0.001262
v 0.012348 0.006020 0.002772
v 0.013686 -0.000971 0.002580
v 0.021316 0.000627 -0.001222
v 0.020084 0.008315 -0.001870
v -0.002528 -0.000772 -0.013742
v 0.009499 0.011921 -0.000576
v -0.005201 0.008882 0.002428
v -0.008564 0.007142 -0.001899
v -0.007038 -0.008958 -0.001536
v -0.010774 -0.003763 -0.004252
v -0.002753 -0.010405 0.003416
v 0.002971 -0.003357 0.009442
v 0.001484 -0.007907 0.006669
v -0.011276 0.002204 -0.004401
v -0.000933 0.008312 0.006765
v 0.002862 0.003316 0.009861
v -0.003840 0.002265 0.014141
v -0.004538 -0.009827 0.010848
v -0.007003 -0.012174 0.007230
v -0.011307 0.007632 0.005150
v -0.014141 0.005493 0.000742
v -0.015128 -0.000226 -0.002361
v -0.009837 -0.010881 0.001780
v -0.012597 -0.006038 -0.001928
f 27 26 24
f 25 24 26
f 31 29 12
f 6 10 25
f 6 25 26
f 6 11 10
f 6 12 11
f 22 3 27
f 22 27 24
f 28 29 26
f 28 26 27
f 23 24 10
f 23 10 11
f 23 11 24
f 1 3 11
f 1 11 12
f 1 27 3
f 1 28 27
f 19 10 24
f 19 25 10
f 19 24 25
f 5 12 6
f 5 31 12
f 13 24 11
f 13 22 24
f 13 11 3
f 13 3 22
f 2 12 29
f 2 1 12
f 2 29 28
f 2 28 1
f 4 6 26
f 4 5 6
f 30 31 5
f 30 26 29
f 30 29 31
f 30 4 26
f 30 5 4
