v 0.014908 0.005373 0.007156
v 0.013715 0.000277 -0.007564
v 0.009290 0.002923 -0.006895
v 0.007024 0.006272 -0.003580
v 0.001130 0.002272 0.007779
v 0.006201 0.004876 0.006923
v 0.003985 0.005457 0.005566
v -0.000704 0.004008 0.005657
v -0.005690 0.003474 0.004606
v -0.004312 0.001284 0.007123
v 0.006245 0.006836 0.001873
v -0.000108 0.005241 0.001325
v 0.000178 0.004724 -0.002860
v -0.005255 0.004256 -0.003048
v -0.005743 0.004913 0.000706
v 0.004442 0.006117 -0.002118
v 0.008344 0.007405 0.001803
v -0.008229 0.001026 0.004677
v -0.008361 0.003315 0.003501
v -0.008588 0.003957 0.000217
v -0.010448 0.001492 0.000126
v 0.010179 0.000682 0.009071
v 0.001762 -0.000205 0.008484
v -0.003637 -0.001791 0.006373
v -0.007607 -0.001710 0.003977
v 0.001625 -0.003818 0.006455
v -0.002920 -0.004033 0.004566
v -0.006205 -0.004133 0.002123
v 0.001572 -0.006348 0.003006
v -0.002593 -0.005676 0.001858
v 0.013692 -0.005839 0.004521
v 0.013328 -0.003181 0.007919
v -0.005157 -0.005634 0.001007
v -0.010090 -0.000633 -0.000685
v 0.002137 0.003360 -0.005673
v -0.004623 0.001862 -0.005223
v 0.002635 0.001370 -0.006879
v -0.004112 0.000024 -0.006756
v -0.008949 0.001854 -0.004491
v -0.008017 0.003529 -0.002685
v 0.013866 -0.006852 -0.001526
v 0.001852 -0.007173 -0.001653
v 0.012540 -0.005402 -0.005512
v 0.009046 -0.000710 -0.007564
v 0.002064 -0.001480 -0.007275
v 0.002061 -0.004684 -0.006077
v -0.003155 -0.002423 -0.006590
v -0.002537 -0.004445 -0.005087
v -0.002638 -0.006261 -0.001734
v -0.006777 -0.002968 -0.004798
v -0.008245 -0.000319 -0.005076
v -0.008072 -0.003362 -0.001299
v -0.005320 -0.004328 -0.004336
v -0.005731 -0.004771 -0.001414
f 43 41 42
f 2 4 1
f 2 43 44
f 2 1 41
f 2 41 43
f 5 23 22
f 17 1 4
f 49 42 33
f 31 42 41
f 31 41 1
f 37 44 38
f 46 43 42
f 46 44 43
f 7 1 17
f 6 22 1
f 6 5 22
f 6 1 7
f 15 7 17
f 54 33 52
f 28 52 33
f 28 25 52
f 53 50 47
f 53 42 49
f 53 52 50
f 53 54 52
f 53 49 33
f 53 33 54
f 8 7 9
f 8 6 7
f 35 38 39
f 51 39 38
f 51 47 50
f 51 38 47
f 14 40 15
f 14 39 40
f 14 4 35
f 14 35 39
f 16 17 4
f 16 15 17
f 16 4 14
f 16 14 15
f 19 21 18
f 19 9 7
f 19 7 15
f 24 18 25
f 24 26 23
f 10 8 9
f 10 9 19
f 10 19 18
f 10 23 5
f 10 5 6
f 10 6 8
f 10 24 23
f 10 18 24
f 29 31 26
f 29 33 42
f 29 42 31
f 32 26 31
f 32 1 22
f 32 31 1
f 32 22 23
f 32 23 26
f 45 44 46
f 45 46 47
f 45 38 44
f 45 47 38
f 48 47 46
f 48 53 47
f 48 46 42
f 48 42 53
f 3 37 38
f 3 38 35
f 3 2 44
f 3 44 37
f 3 4 2
f 3 35 4
f 34 50 52
f 34 51 50
f 34 52 25
f 34 21 39
f 34 39 51
f 34 18 21
f 34 25 18
f 20 15 40
f 20 19 15
f 20 21 19
f 20 39 21
f 20 40 39
f 27 25 28
f 27 24 25
f 27 28 33
f 27 26 24
f 27 33 29
f 27 29 26
