v 0.010808 0.002377 -0.004993
v 0.009825 0.005549 -0.002172
v -0.004716 0.001110 0.006923
v 0.000977 0.001936 0.008291
v 0.000785 0.003922 0.006562
v -0.004478 0.003397 0.005242
v 0.006628 0.004521 0.008867
v 0.005088 0.005239 0.006845
v 0.007219 0.006473 0.003045
v 0.001556 0.005157 0.001987
v 0.003206 0.004608 -0.002538
v -0.002293 0.004828 -0.003868
v -0.004163 0.005616 0.000603
v 0.006800 0.005956 -0.000728
v -0.007559 0.003301 0.003420
v -0.009011 0.001117 0.003331
v 0.009959 0.007046 0.003963
v 0.010069 -0.000359 0.011045
v 0.000987 -0.001102 0.008718
v -0.005107 -0.002061 0.006272
v -0.009176 -0.001452 0.001652
v 0.000880 -0.004697 0.006624
v -0.004894 -0.004512 0.004202
v -0.007923 -0.003493 0.000258
v 0.001277 -0.007529 0.002923
v -0.004233 -0.006583 0.000600
v 0.012416 -0.007566 0.005787
v 0.011261 -0.004886 0.009558
v -0.006317 -0.005139 -0.000522
v -0.009479 0.003224 -0.001087
v -0.009702 0.000011 -0.002282
v -0.008125 0.004372 -0.000428
v 0.003768 0.003721 -0.004364
v -0.002383 0.003202 -0.005501
v 0.004034 0.001651 -0.006174
v -0.002861 0.001256 -0.006894
v -0.006989 0.003185 -0.005198
v -0.006800 0.004374 -0.003878
v 0.013695 -0.008025 0.000418
v 0.002542 -0.007581 -0.002011
v 0.013979 -0.005671 -0.003642
v 0.011644 -0.001078 -0.005731
v 0.004436 -0.001077 -0.006796
v 0.003580 -0.004778 -0.005685
v -0.002494 -0.000750 -0.007837
v -0.001320 -0.003628 -0.006621
v -0.002791 -0.006548 -0.003128
v -0.006958 -0.000711 -0.006735
v -0.007317 0.001612 -0.006057
v -0.008679 -0.001977 -0.002836
v -0.005143 -0.003133 -0.006276
v -0.006510 -0.004430 -0.003152
f 1 17 41
f 7 18 17
f 45 35 1
f 39 41 17
f 39 17 18
f 39 27 25
f 8 7 17
f 13 8 17
f 14 13 17
f 2 17 1
f 2 14 17
f 16 30 31
f 16 15 30
f 16 3 15
f 16 20 3
f 42 1 41
f 42 45 1
f 42 41 44
f 36 35 45
f 40 39 25
f 40 25 26
f 40 26 47
f 40 41 39
f 40 44 41
f 40 47 44
f 12 14 2
f 12 38 13
f 12 13 14
f 32 13 38
f 32 38 30
f 32 15 13
f 32 30 15
f 19 20 22
f 19 18 3
f 19 3 20
f 28 25 27
f 28 22 25
f 28 39 18
f 28 27 39
f 28 18 19
f 28 19 22
f 4 18 7
f 4 3 18
f 4 7 3
f 6 15 3
f 6 3 7
f 6 7 8
f 6 13 15
f 6 8 13
f 23 22 20
f 23 25 22
f 23 26 25
f 46 44 47
f 46 45 44
f 43 44 45
f 43 45 42
f 43 42 44
f 52 47 26
f 49 31 30
f 49 48 31
f 49 36 45
f 49 45 48
f 34 35 36
f 34 1 35
f 34 2 1
f 34 12 2
f 21 20 16
f 21 23 20
f 21 16 31
f 51 48 45
f 51 45 46
f 51 46 47
f 51 47 52
f 51 52 48
f 50 31 48
f 50 48 52
f 50 21 31
f 37 36 49
f 37 34 36
f 37 30 38
f 37 49 30
f 37 38 12
f 37 12 34
f 29 52 26
f 24 21 50
f 24 23 21
f 24 50 52
f 24 52 29
f 24 26 23
f 24 29 26
