v -0.008508 0.009059 -0.002222
v -0.010876 0.005907 0.000760
v 0.000788 0.006044 0.010801
v 0.004500 0.009419 0.008258
v 0.014373 -0.005134 0.002963
v 0.005596 -0.006844 0.003231
v 0.008416 -0.004951 0.000124
v -0.003954 -0.005419 -0.008844
v -0.006983 -0.007074 -0.005622
v 0.001132 -0.004974 0.011299
v 0.002334 -0.006550 0.006713
v -0.001634 -0.000657 0.012891
v -0.002606 -0.001938 -0.010740
v -0.002446 0.003920 -0.010577
v 0.011858 0.003707 -0.001552
v 0.011355 -0.001088 -0.000967
v -0.012519 0.001494 0.001834
v -0.009912 -0.006011 -0.002446
v -0.011719 -0.003351 0.000546
v -0.005095 0.008602 -0.007037
v -0.006621 -0.002121 -0.013072
v 0.008536 0.009687 0.002700
v 0.013985 -0.001728 0.000958
f 4 5 22
f 4 12 5
f 23 22 5
f 23 15 22
f 14 21 20
f 14 20 22
f 14 22 15
f 3 12 4
f 2 21 17
f 2 17 12
f 2 12 3
f 1 22 20
f 1 4 22
f 1 20 21
f 1 21 2
f 1 3 4
f 1 2 3
f 8 5 9
f 8 9 21
f 10 5 12
f 19 17 21
f 19 12 17
f 19 10 12
f 13 15 23
f 13 21 14
f 13 14 15
f 13 23 5
f 13 5 8
f 13 8 21
f 6 9 5
f 18 10 19
f 18 21 9
f 18 19 21
f 11 9 6
f 11 18 9
f 11 10 18
f 11 5 10
f 11 6 5
