v 0.010564 -0.010013 0.004323
v 0.014252 -0.001570 -0.006275
v 0.014099 0.004128 -0.005606
v 0.012268 -0.009910 -0.001391
v 0.011781 -0.007950 -0.004601
v 0.003005 -0.002890 0.012446
v 0.010857 0.008226 0.010892
v 0.010716 0.010258 -0.000575
v 0.006151 0.009493 0.005318
v 0.001977 0.004316 0.009410
v -0.013228 0.009470 0.000396
v -0.016517 0.004838 0.003167
v -0.001998 0.004507 0.007714
v -0.000043 0.009979 0.003851
v -0.010224 -0.007193 -0.009949
v -0.011446 -0.009303 -0.005775
v 0.001467 -0.006085 0.008542
v 0.005317 -0.007772 0.003747
v -0.001821 -0.001607 0.009017
v -0.009512 -0.001328 -0.012768
v -0.008794 0.005755 -0.011451
v 0.005076 0.005061 -0.007910
v 0.006027 -0.001062 -0.007474
v -0.017313 -0.000333 0.004081
v -0.013046 -0.008815 -0.000840
v -0.015993 -0.005637 0.003151
v -0.010532 0.009501 -0.005202
v 0.002958 0.010811 -0.002624
v 0.006899 -0.006620 -0.003365
v 0.007052 -0.008253 -0.000246
f 21 27 28
f 12 27 21
f 12 24 6
f 12 6 7
f 12 20 24
f 12 21 20
f 11 28 27
f 11 12 7
f 11 27 12
f 22 20 21
f 22 21 28
f 22 28 8
f 26 6 24
f 4 2 7
f 14 28 11
f 14 11 7
f 14 8 28
f 3 22 8
f 3 7 2
f 3 8 7
f 3 2 20
f 3 20 22
f 17 6 26
f 17 26 25
f 15 24 20
f 15 26 24
f 9 7 8
f 9 14 7
f 9 8 14
f 1 17 25
f 1 6 17
f 1 7 6
f 1 4 7
f 16 15 4
f 16 1 25
f 16 4 1
f 16 25 26
f 16 26 15
f 5 2 4
f 5 4 15
f 5 20 2
f 5 15 20
