v 0.006984 -0.006543 0.005490
v 0.006069 -0.008181 0.000034
v 0.011312 -0.006536 0.005350
v 0.005823 0.006070 0.006460
v 0.006030 0.001601 0.008907
v 0.010662 0.002982 0.008838
v 0.010602 0.007368 0.005936
v 0.005132 0.008656 0.000948
v 0.006705 -0.002981 0.008612
v 0.011192 -0.002314 0.008576
v 0.009681 0.008917 -0.006211
v -0.005777 0.003367 -0.007847
v 0.004620 0.003238 -0.009359
v 0.004985 -0.002575 -0.009454
v -0.005994 -0.000677 -0.008996
v 0.010112 0.003211 -0.010148
v 0.005072 0.007780 -0.005555
v -0.004307 -0.007147 0.003154
v -0.004349 -0.008049 -0.002249
v -0.004215 -0.003749 0.007067
v -0.005113 0.004478 0.005973
v -0.004719 -0.000112 0.007860
v 0.004961 -0.007066 -0.006227
v -0.004570 -0.006477 -0.006822
v -0.005024 0.006539 -0.005025
v -0.004382 0.007702 0.000705
v -0.009757 0.005700 -0.005191
v -0.009099 0.006992 0.000451
v -0.009958 0.000047 0.007671
v -0.008419 -0.004017 0.006505
v -0.011000 0.002772 -0.008103
v -0.008686 -0.006211 -0.006910
v -0.007126 -0.006985 0.002622
v -0.007446 -0.007800 -0.003060
f 16 31 11
f 27 11 31
f 29 9 5
f 29 30 9
f 29 5 6
f 29 31 32
f 29 32 30
f 8 11 26
f 1 3 9
f 1 9 30
f 10 6 5
f 10 5 9
f 10 9 3
f 15 32 31
f 15 14 32
f 15 31 16
f 15 16 14
f 23 16 3
f 23 14 16
f 21 29 6
f 28 26 11
f 28 11 27
f 28 29 21
f 28 27 31
f 28 31 29
f 24 32 14
f 24 14 23
f 7 11 8
f 7 8 26
f 7 6 10
f 7 26 28
f 7 28 21
f 7 16 11
f 7 3 16
f 7 10 3
f 34 30 32
f 34 33 30
f 34 32 24
f 34 24 23
f 18 1 30
f 18 30 33
f 4 21 6
f 4 6 7
f 4 7 21
f 2 23 3
f 2 3 1
f 2 1 18
f 19 33 34
f 19 18 33
f 19 2 18
f 19 34 23
f 19 23 2
